<svg width="64" height="64" viewBox="0 0 64 64" fill="none" xmlns="http://www.w3.org/2000/svg">
<g clip-path="url(#clip0_6_712)">
<path d="M0 31.8087C0 14.2412 14.2412 0 31.8087 0C49.3762 0 63.6174 14.2412 63.6174 31.8087C63.6174 49.3762 49.3762 63.6174 31.8087 63.6174C14.2412 63.6174 0 49.3762 0 31.8087Z" fill="white"/>
<path d="M21.2058 50.3638V13.2536L50.3638 31.8087L21.2058 50.3638Z" fill="#267091"/>
</g>
<path d="M31.8086 1.73535C48.4178 1.73535 61.8828 15.1994 61.8828 31.8086C61.8828 48.4178 48.4178 61.8828 31.8086 61.8828C15.1994 61.8828 1.73535 48.4178 1.73535 31.8086C1.73541 15.1994 15.1994 1.73541 31.8086 1.73535Z" stroke="#267091" stroke-width="3.47004"/>
<defs>
<clipPath id="clip0_6_712">
<path d="M0 31.8087C0 14.2412 14.2412 0 31.8087 0C49.3762 0 63.6174 14.2412 63.6174 31.8087C63.6174 49.3762 49.3762 63.6174 31.8087 63.6174C14.2412 63.6174 0 49.3762 0 31.8087Z" fill="white"/>
</clipPath>
</defs>
</svg>
