<svg width="32" height="32" viewBox="0 0 32 32" fill="none" xmlns="http://www.w3.org/2000/svg">
<path fill-rule="evenodd" clip-rule="evenodd" d="M12.696 20.18L12.695 11.1252L21.341 15.6683L12.696 20.18ZM31.68 9.55619C31.68 9.55619 31.367 7.33555 30.408 6.35767C29.191 5.07362 27.827 5.06757 27.202 4.99304C22.724 4.66674 16.007 4.66675 16.007 4.66675H15.993C15.993 4.66675 9.276 4.66674 4.798 4.99304C4.172 5.06757 2.809 5.07362 1.591 6.35767C0.632003 7.33555 0.319997 9.55619 0.319997 9.55619C0.319997 9.55619 0 12.1646 0 14.7719V17.2172C0 19.8255 0.319997 22.4329 0.319997 22.4329C0.319997 22.4329 0.632003 24.6535 1.591 25.6314C2.809 26.9155 4.408 26.8752 5.12 27.0091C7.68 27.2569 16 27.3334 16 27.3334C16 27.3334 22.724 27.3233 27.202 26.997C27.827 26.9215 29.191 26.9155 30.408 25.6314C31.367 24.6535 31.68 22.4329 31.68 22.4329C31.68 22.4329 32 19.8255 32 17.2172V14.7719C32 12.1646 31.68 9.55619 31.68 9.55619Z" fill="#CE1312"/>
</svg>
