<svg width="113" height="93" viewBox="0 0 113 93" fill="none" xmlns="http://www.w3.org/2000/svg">
<path d="M28.6483 59.2382L28.6737 58.9894L28.4591 58.9675L28.406 59.1766L28.6483 59.2382ZM36.447 60.0339L36.6922 60.083L36.7462 59.8132L36.4724 59.7852L36.447 60.0339ZM30.598 71.2147L30.7582 71.4067L30.598 71.2147ZM7.32124 68.7876L7.11951 68.9353L7.12061 68.9368L7.32124 68.7876ZM36.447 46.8239L36.4812 47.0715L36.7395 47.0359L36.693 46.7793L36.447 46.8239ZM28.6483 47.8982L28.4007 47.9324L28.4349 48.1799L28.6824 48.1458L28.6483 47.8982ZM14.5629 44.4763L14.3411 44.361L14.3406 44.3619L14.5629 44.4763ZM14.6425 63.615L14.4329 63.7513L14.4341 63.7531L14.6425 63.615ZM28.6483 59.2382L28.623 59.4869L36.4217 60.2826L36.447 60.0339L36.4724 59.7852L28.6737 58.9894L28.6483 59.2382ZM36.447 60.0339L36.2019 59.9849C35.201 64.9892 33.2718 68.6568 30.4378 71.0228L30.598 71.2147L30.7582 71.4067C33.707 68.9449 35.6771 65.1586 36.6922 60.083L36.447 60.0339ZM30.598 71.2147L30.4378 71.0228C27.5953 73.3959 24.1652 74.5856 20.1334 74.5856V74.8356V75.0856C24.2717 75.0856 27.818 73.8614 30.7582 71.4067L30.598 71.2147ZM20.1334 74.8356V74.5856C14.659 74.5856 10.4668 72.5998 7.52187 68.6384L7.32124 68.7876L7.12061 68.9368C10.1706 73.0394 14.5198 75.0856 20.1334 75.0856V74.8356ZM7.32124 68.7876L7.52297 68.6399C4.58837 64.6311 3.11483 59.7247 3.11483 53.9064H2.86483H2.61483C2.61483 59.8127 4.11223 64.8271 7.11951 68.9353L7.32124 68.7876ZM2.86483 53.9064H3.11483C3.11483 47.9055 4.73239 42.9648 7.95172 39.0649L7.75892 38.9058L7.56613 38.7466C4.26001 42.7516 2.61483 47.8113 2.61483 53.9064H2.86483ZM7.75892 38.9058L7.95172 39.0649C11.1637 35.174 15.4413 33.2272 20.8098 33.2272V32.9772V32.7272C15.3026 32.7272 10.8796 34.7328 7.56613 38.7466L7.75892 38.9058ZM20.8098 32.9772V33.2272C25.1419 33.2272 28.569 34.3683 31.1186 36.626C33.6703 38.8855 35.372 42.289 36.201 46.8684L36.447 46.8239L36.693 46.7793C35.8509 42.1277 34.1108 38.6077 31.4501 36.2517C28.7873 33.8938 25.2315 32.7272 20.8098 32.7272V32.9772ZM36.447 46.8239L36.4129 46.5762L28.6142 47.6505L28.6483 47.8982L28.6824 48.1458L36.4812 47.0715L36.447 46.8239ZM28.6483 47.8982L28.896 47.8639C28.5469 45.3398 27.7469 43.4112 26.469 42.1125C25.1857 40.8085 23.4484 40.1678 21.2873 40.1678V40.4178V40.6678C23.3439 40.6678 24.9422 41.2738 26.1126 42.4632C27.2884 43.6581 28.0601 45.4697 28.4007 47.9324L28.6483 47.8982ZM21.2873 40.4178V40.1678C19.7113 40.1678 18.3353 40.5146 17.1692 41.2184C16.003 41.9223 15.0617 42.9742 14.3411 44.361L14.5629 44.4763L14.7847 44.5916C15.47 43.2727 16.3524 42.2954 17.4276 41.6465C18.503 40.9974 19.7862 40.6678 21.2873 40.6678V40.4178ZM14.5629 44.4763L14.3406 44.3619C12.9388 47.0846 12.2439 50.3755 12.2439 54.2247H12.4939H12.7439C12.7439 50.4343 13.4283 47.2263 14.7852 44.5907L14.5629 44.4763ZM12.4939 54.2247H12.2439C12.2439 58.3072 12.9634 61.4926 14.4329 63.7513L14.6425 63.615L14.852 63.4786C13.4568 61.334 12.7439 58.2592 12.7439 54.2247H12.4939ZM14.6425 63.615L14.4341 63.7531C15.9384 66.0233 18.0452 67.1675 20.7303 67.1675V66.9175V66.6675C18.2161 66.6675 16.2644 65.61 14.8509 63.4769L14.6425 63.615ZM20.7303 66.9175V67.1675C22.7788 67.1675 24.4977 66.5062 25.868 65.1771C27.2324 63.8539 28.2341 61.8858 28.8906 59.2997L28.6483 59.2382L28.406 59.1766C27.7628 61.7101 26.7949 63.5817 25.5199 64.8182C24.2509 66.0489 22.6606 66.6675 20.7303 66.6675V66.9175Z" fill="white"/>
<path d="M48.4919 63.1493V63.3993H48.7419V63.1493H48.4919ZM46.0078 63.1493H45.7578V63.3993H46.0078V63.1493ZM46.0078 57.1611H46.2578V56.9111H46.0078V57.1611ZM40.7467 57.1611V56.9111H40.4967V57.1611H40.7467ZM40.7467 63.1493V63.3993H40.9967V63.1493H40.7467ZM38.2626 63.1493H38.0126V63.3993H38.2626V63.1493ZM38.2626 49.3655V49.1155H38.0126V49.3655H38.2626ZM40.7467 49.3655H40.9967V49.1155H40.7467V49.3655ZM40.7467 55.0305H40.4967V55.2805H40.7467V55.0305ZM46.0078 55.0305V55.2805H46.2578V55.0305H46.0078ZM46.0078 49.3655V49.1155H45.7578V49.3655H46.0078ZM48.4919 49.3655H48.7419V49.1155H48.4919V49.3655ZM48.4919 63.1493V62.8993H46.0078V63.1493V63.3993H48.4919V63.1493ZM46.0078 63.1493H46.2578V57.1611H46.0078H45.7578V63.1493H46.0078ZM46.0078 57.1611V56.9111H40.7467V57.1611V57.4111H46.0078V57.1611ZM40.7467 57.1611H40.4967V63.1493H40.7467H40.9967V57.1611H40.7467ZM40.7467 63.1493V62.8993H38.2626V63.1493V63.3993H40.7467V63.1493ZM38.2626 63.1493H38.5126V49.3655H38.2626H38.0126V63.1493H38.2626ZM38.2626 49.3655V49.6155H40.7467V49.3655V49.1155H38.2626V49.3655ZM40.7467 49.3655H40.4967V55.0305H40.7467H40.9967V49.3655H40.7467ZM40.7467 55.0305V55.2805H46.0078V55.0305V54.7805H40.7467V55.0305ZM46.0078 55.0305H46.2578V49.3655H46.0078H45.7578V55.0305H46.0078ZM46.0078 49.3655V49.6155H48.4919V49.3655V49.1155H46.0078V49.3655ZM48.4919 49.3655H48.2419V63.1493H48.4919H48.7419V49.3655H48.4919ZM60.9933 49.3655H61.2433V49.1155H60.9933V49.3655ZM60.5894 60.9883L60.3586 60.8922L60.5894 60.9883ZM59.0242 62.6646L59.1536 62.8785L59.1541 62.8781L59.0242 62.6646ZM53.4298 62.7555L53.3076 62.9735L53.3084 62.974L53.4298 62.7555ZM51.8747 61.0994L51.6466 61.2015L51.6469 61.2023L51.8747 61.0994ZM51.4001 49.3655V49.1155H51.1501V49.3655H51.4001ZM53.9347 49.3655H54.1847V49.1155H53.9347V49.3655ZM54.6921 60.6147L54.5408 60.8137L54.5438 60.8159L54.6921 60.6147ZM58.3274 60.5743L58.4914 60.7629L58.493 60.7616L58.3274 60.5743ZM59.0242 49.3655V49.1155H58.7742V49.3655H59.0242ZM60.9933 49.3655H60.7433V58.2214H60.9933H61.2433V49.3655H60.9933ZM60.9933 58.2214H60.7433C60.7433 59.4069 60.6092 60.2906 60.3586 60.8922L60.5894 60.9883L60.8201 61.0845C61.1081 60.3934 61.2433 59.4326 61.2433 58.2214H60.9933ZM60.5894 60.9883L60.3586 60.8922C60.1149 61.477 59.6365 61.9992 58.8942 62.451L59.0242 62.6646L59.1541 62.8781C59.9602 62.3875 60.5252 61.7922 60.8201 61.0845L60.5894 60.9883ZM59.0242 62.6646L58.8947 62.4507C58.1746 62.8866 57.2828 63.1114 56.2068 63.1114V63.3614V63.6114C57.3524 63.6114 58.3388 63.3716 59.1536 62.8785L59.0242 62.6646ZM56.2068 63.3614V63.1114C55.1107 63.1114 54.2304 62.9142 53.5512 62.5369L53.4298 62.7555L53.3084 62.974C54.0834 63.4046 55.0544 63.6114 56.2068 63.6114V63.3614ZM53.4298 62.7555L53.5521 62.5374C52.8747 62.1575 52.3953 61.6442 52.1026 60.9964L51.8747 61.0994L51.6469 61.2023C51.987 61.9549 52.5444 62.5456 53.3076 62.9735L53.4298 62.7555ZM51.8747 61.0994L52.1029 60.9972C51.8055 60.3328 51.6501 59.472 51.6501 58.4032H51.4001H51.1501C51.1501 59.5156 51.3112 60.4522 51.6466 61.2015L51.8747 61.0994ZM51.4001 58.4032H51.6501V49.3655H51.4001H51.1501V58.4032H51.4001ZM51.4001 49.3655V49.6155H53.9347V49.3655V49.1155H51.4001V49.3655ZM53.9347 49.3655H53.6847V58.2214H53.9347H54.1847V49.3655H53.9347ZM53.9347 58.2214H53.6847C53.6847 59.4454 53.9353 60.3536 54.5408 60.8137L54.6921 60.6147L54.8434 60.4156C54.439 60.1084 54.1847 59.421 54.1847 58.2214H53.9347ZM54.6921 60.6147L54.5438 60.8159C55.101 61.2265 55.7461 61.4302 56.4693 61.4302V61.1802V60.9302C55.8461 60.9302 55.3064 60.7568 54.8404 60.4134L54.6921 60.6147ZM56.4693 61.1802V61.4302C57.2878 61.4302 57.9706 61.2158 58.4914 60.7629L58.3274 60.5743L58.1633 60.3856C57.7551 60.7406 57.1993 60.9302 56.4693 60.9302V61.1802ZM58.3274 60.5743L58.493 60.7616C59.0426 60.2757 59.2742 59.3942 59.2742 58.2214H59.0242H58.7742C58.7742 59.3645 58.5412 60.0516 58.1618 60.387L58.3274 60.5743ZM59.0242 58.2214H59.2742V49.3655H59.0242H58.7742V58.2214H59.0242ZM59.0242 49.3655V49.6155H60.9933V49.3655V49.1155H59.0242V49.3655ZM74.5751 63.1493V63.3993H74.9432L74.8076 63.0572L74.5751 63.1493ZM71.9497 63.1493L71.7158 63.2377L71.7769 63.3993H71.9497V63.1493ZM69.8089 57.4843L70.0427 57.3959L69.9816 57.2343H69.8089V57.4843ZM66.3149 57.4843V57.2343H66.0649V57.4843H66.3149ZM66.3149 63.1493V63.3993H66.5649V63.1493H66.3149ZM63.8308 63.1493H63.5808V63.3993H63.8308V63.1493ZM63.8308 49.3655V49.1155H63.5808V49.3655H63.8308ZM73.4745 50.4964L73.3008 50.6763L73.3016 50.6771L73.4745 50.4964ZM72.1617 57.0602L72.0684 56.8282L71.8377 56.9211L71.9293 57.1523L72.1617 57.0602ZM66.3149 55.495H66.0649V55.745H66.3149V55.495ZM71.4044 54.9295L71.5675 55.1189L71.4044 54.9295ZM71.4145 51.9102L71.2498 52.0983L71.2515 52.0998L71.4145 51.9102ZM66.3149 51.3447V51.0947H66.0649V51.3447H66.3149ZM74.5751 63.1493V62.8993H71.9497V63.1493V63.3993H74.5751V63.1493ZM71.9497 63.1493L72.1835 63.0609L70.0427 57.3959L69.8089 57.4843L69.575 57.5727L71.7158 63.2377L71.9497 63.1493ZM69.8089 57.4843V57.2343H66.3149V57.4843V57.7343H69.8089V57.4843ZM66.3149 57.4843H66.0649V63.1493H66.3149H66.5649V57.4843H66.3149ZM66.3149 63.1493V62.8993H63.8308V63.1493V63.3993H66.3149V63.1493ZM63.8308 63.1493H64.0808V49.3655H63.8308H63.5808V63.1493H63.8308ZM63.8308 49.3655V49.6155H69.8089V49.3655V49.1155H63.8308V49.3655ZM69.8089 49.3655V49.6155C71.4405 49.6155 72.5861 49.9862 73.3008 50.6763L73.4745 50.4964L73.6481 50.3166C72.801 49.4987 71.5029 49.1155 69.8089 49.1155V49.3655ZM73.4745 50.4964L73.3016 50.6771C74.0279 51.3721 74.3958 52.2736 74.3958 53.4047H74.6458H74.8958C74.8958 52.1526 74.4828 51.1153 73.6473 50.3158L73.4745 50.4964ZM74.6458 53.4047H74.3958C74.3958 54.2501 74.1986 54.9459 73.818 55.5059C73.4373 56.0661 72.8602 56.5096 72.0684 56.8282L72.1617 57.0602L72.255 57.2921C73.1193 56.9443 73.7842 56.4453 74.2316 55.787C74.679 55.1285 74.8958 54.3298 74.8958 53.4047H74.6458ZM72.1617 57.0602L71.9293 57.1523L74.3427 63.2414L74.5751 63.1493L74.8076 63.0572L72.3941 56.9681L72.1617 57.0602ZM66.3149 55.495V55.745H69.4049V55.495V55.245H66.3149V55.495ZM69.4049 55.495V55.745C70.3287 55.745 71.0654 55.5515 71.5675 55.1189L71.4044 54.9295L71.2412 54.7401C70.8682 55.0614 70.2719 55.245 69.4049 55.245V55.495ZM71.4044 54.9295L71.5675 55.1189C72.0684 54.6874 72.3107 54.0954 72.3107 53.3744H72.0607H71.8107C71.8107 53.9729 71.6155 54.4176 71.2412 54.7401L71.4044 54.9295ZM72.0607 53.3744H72.3107C72.3107 52.7011 72.0676 52.1418 71.5774 51.7206L71.4145 51.9102L71.2515 52.0998C71.6231 52.4191 71.8107 52.8359 71.8107 53.3744H72.0607ZM71.4145 51.9102L71.5791 51.722C71.0887 51.293 70.4201 51.0947 69.6069 51.0947V51.3447V51.5947C70.342 51.5947 70.8785 51.7734 71.2498 52.0983L71.4145 51.9102ZM69.6069 51.3447V51.0947H66.3149V51.3447V51.5947H69.6069V51.3447ZM66.3149 51.3447H66.0649V55.495H66.3149H66.5649V51.3447H66.3149ZM84.8247 58.3628L84.8519 58.1143L84.5972 58.0864L84.5756 58.3417L84.8247 58.3628ZM87.127 58.6153L87.3756 58.6419L87.4022 58.3939L87.1543 58.3668L87.127 58.6153ZM85.5214 62.0284L85.6955 62.2078L85.6956 62.2078L85.5214 62.0284ZM78.8365 62.4121L78.6791 62.6064L78.6799 62.607L78.8365 62.4121ZM77.8873 51.1326L78.0864 51.2838L78.0868 51.2833L77.8873 51.1326ZM87.127 54.0308L87.1532 54.2794L87.4131 54.252L87.3742 53.9936L87.127 54.0308ZM84.8247 54.2731L84.5797 54.3231L84.6251 54.5455L84.8508 54.5217L84.8247 54.2731ZM79.8463 52.4555L79.6317 52.3273L79.6314 52.3278L79.8463 52.4555ZM79.9069 59.9987L79.6969 60.1343L79.6974 60.1351L79.9069 59.9987ZM83.9562 60.4127L84.1426 60.5794L83.9562 60.4127ZM84.8247 58.3628L84.7974 58.6113L87.0998 58.8638L87.127 58.6153L87.1543 58.3668L84.8519 58.1143L84.8247 58.3628ZM87.127 58.6153L86.8784 58.5886C86.736 59.9156 86.2242 60.9977 85.3473 61.849L85.5214 62.0284L85.6956 62.2078C86.6632 61.2684 87.2218 60.0751 87.3756 58.6419L87.127 58.6153ZM85.5214 62.0284L85.3473 61.849C84.4863 62.6847 83.3478 63.1114 81.9063 63.1114V63.3614V63.6114C83.4539 63.6114 84.7254 63.1494 85.6955 62.2078L85.5214 62.0284ZM81.9063 63.3614V63.1114C80.69 63.1114 79.7263 62.8063 78.9931 62.2172L78.8365 62.4121L78.6799 62.607C79.522 63.2836 80.6049 63.6114 81.9063 63.6114V63.3614ZM78.8365 62.4121L78.9939 62.2179C78.2516 61.6164 77.6726 60.796 77.2618 59.746L77.029 59.8371L76.7962 59.9282C77.2335 61.046 77.8596 61.9422 78.6791 62.6064L78.8365 62.4121ZM77.029 59.8371L77.2618 59.746C76.8503 58.6945 76.6428 57.531 76.6428 56.2523H76.3928H76.1428C76.1428 57.5857 76.3594 58.812 76.7962 59.9282L77.029 59.8371ZM76.3928 56.2523H76.6428C76.6428 54.1914 77.1312 52.5423 78.0864 51.2838L77.8873 51.1326L77.6882 50.9815C76.6507 52.3484 76.1428 54.1125 76.1428 56.2523H76.3928ZM77.8873 51.1326L78.0868 51.2833C79.033 50.0302 80.327 49.4034 81.9972 49.4034V49.1534V48.9034C80.1802 48.9034 78.7343 49.596 77.6878 50.982L77.8873 51.1326ZM81.9972 49.1534V49.4034C83.3079 49.4034 84.3828 49.8049 85.2405 50.5991L85.4104 50.4157L85.5802 50.2322C84.6202 49.3434 83.4197 48.9034 81.9972 48.9034V49.1534ZM85.4104 50.4157L85.2405 50.5991C86.0972 51.3923 86.6502 52.5395 86.8798 54.0679L87.127 54.0308L87.3742 53.9936C87.1326 52.3849 86.5412 51.122 85.5802 50.2322L85.4104 50.4157ZM87.127 54.0308L87.1008 53.7821L84.7985 54.0245L84.8247 54.2731L84.8508 54.5217L87.1532 54.2794L87.127 54.0308ZM84.8247 54.2731L85.0696 54.2232C84.8529 53.1603 84.4999 52.3317 83.9906 51.7657C83.4735 51.1909 82.8092 50.9028 82.0174 50.9028V51.1528V51.4028C82.673 51.4028 83.2003 51.6348 83.6189 52.1001C84.0454 52.5741 84.3723 53.3058 84.5797 54.3231L84.8247 54.2731ZM82.0174 51.1528V50.9028C80.9913 50.9028 80.1903 51.3914 79.6317 52.3273L79.8463 52.4555L80.061 52.5836C80.5391 51.7826 81.1854 51.4028 82.0174 51.4028V51.1528ZM79.8463 52.4555L79.6314 52.3278C79.0865 53.2455 78.8289 54.5501 78.8289 56.2119H79.0789H79.3289C79.3289 54.5885 79.5829 53.3888 80.0613 52.5831L79.8463 52.4555ZM79.0789 56.2119H78.8289C78.8289 57.9018 79.107 59.2206 79.6969 60.1343L79.9069 59.9987L80.1169 59.8631C79.6028 59.0668 79.3289 57.8612 79.3289 56.2119H79.0789ZM79.9069 59.9987L79.6974 60.1351C80.2893 61.0447 81.094 61.5211 82.0982 61.5211V61.2711V61.0211C81.2847 61.0211 80.6285 60.6492 80.1165 59.8623L79.9069 59.9987ZM82.0982 61.2711V61.5211C82.9008 61.5211 83.5865 61.2013 84.1426 60.5794L83.9562 60.4127L83.7699 60.2461C83.3027 60.7686 82.7497 61.0211 82.0982 61.0211V61.2711ZM83.9562 60.4127L84.1426 60.5794C84.6918 59.9651 85.0021 59.2301 85.0738 58.3839L84.8247 58.3628L84.5756 58.3417C84.5126 59.0843 84.2439 59.7159 83.7699 60.2461L83.9562 60.4127Z" fill="white"/>
<path d="M93.1824 36.1621H90.6119C89.6749 36.1621 88.9153 36.5915 88.9153 37.1213V71.8614C88.9153 72.3911 89.6749 72.8206 90.6119 72.8206H93.1824C94.1194 72.8206 94.879 72.3911 94.879 71.8614V37.1213C94.879 36.5915 94.1194 36.1621 93.1824 36.1621Z" stroke="white" stroke-width="0.5" stroke-miterlimit="10" stroke-linecap="round"/>
<path d="M44.1387 43.6074L44.1659 43.3589L43.9112 43.3309L43.8896 43.5863L44.1387 43.6074ZM45.2651 43.7309L45.5137 43.7576L45.5403 43.5096L45.2924 43.4824L45.2651 43.7309ZM44.4796 45.4008L44.6537 45.5802L44.6537 45.5802L44.4796 45.4008ZM41.2089 45.5886L41.0515 45.7828L41.0523 45.7834L41.2089 45.5886ZM40.7444 40.0699L40.9436 40.221L40.944 40.2205L40.7444 40.0699ZM45.2651 41.4878L45.2913 41.7365L45.5512 41.7091L45.5123 41.4507L45.2651 41.4878ZM44.1387 41.6064L43.8937 41.6564L43.9391 41.8788L44.1648 41.855L44.1387 41.6064ZM41.7029 40.7171L41.4883 40.589L41.488 40.5895L41.7029 40.7171ZM41.7326 44.4077L41.5225 44.5434L41.523 44.5441L41.7326 44.4077ZM44.1387 43.6074L44.1114 43.8559L45.2379 43.9794L45.2651 43.7309L45.2924 43.4824L44.1659 43.3589L44.1387 43.6074ZM45.2651 43.7309L45.0165 43.7042C44.9498 44.3264 44.7113 44.8274 44.3054 45.2214L44.4796 45.4008L44.6537 45.5802C45.1503 45.0981 45.4355 44.4858 45.5137 43.7576L45.2651 43.7309ZM44.4796 45.4008L44.3054 45.2214C43.9121 45.6032 43.389 45.803 42.7108 45.803V46.053V46.303C43.4951 46.303 44.1512 46.068 44.6537 45.5802L44.4796 45.4008ZM42.7108 46.053V45.803C42.1375 45.803 41.6964 45.6595 41.3654 45.3937L41.2089 45.5886L41.0523 45.7834C41.4921 46.1368 42.0523 46.303 42.7108 46.303V46.053ZM41.2089 45.5886L41.3663 45.3943C41.0228 45.116 40.7516 44.734 40.5573 44.2376L40.3245 44.3287L40.0917 44.4198C40.3125 44.984 40.6308 45.4419 41.0515 45.7828L41.2089 45.5886ZM40.3245 44.3287L40.5573 44.2376C40.3625 43.7397 40.2632 43.1864 40.2632 42.5748H40.0132H39.7632C39.7632 43.2411 39.8715 43.8571 40.0917 44.4198L40.3245 44.3287ZM40.0132 42.5748H40.2632C40.2632 41.5866 40.4972 40.8091 40.9436 40.221L40.7444 40.0699L40.5453 39.9187C40.0167 40.6152 39.7632 41.5077 39.7632 42.5748H40.0132ZM40.7444 40.0699L40.944 40.2205C41.3813 39.6414 41.9756 39.3515 42.7553 39.3515V39.1015V38.8515C41.8288 38.8515 41.0826 39.2072 40.5449 39.9192L40.7444 40.0699ZM42.7553 39.1015V39.3515C43.368 39.3515 43.8619 39.5382 44.2554 39.9025L44.4252 39.7191L44.5951 39.5357C44.0993 39.0766 43.4798 38.8515 42.7553 38.8515V39.1015ZM44.4252 39.7191L44.2554 39.9025C44.6479 40.266 44.9086 40.7977 45.0179 41.525L45.2651 41.4878L45.5123 41.4507C45.391 40.6431 45.0919 39.9957 44.5951 39.5357L44.4252 39.7191ZM45.2651 41.4878L45.239 41.2392L44.1125 41.3578L44.1387 41.6064L44.1648 41.855L45.2913 41.7365L45.2651 41.4878ZM44.1387 41.6064L44.3836 41.5565C44.2752 41.0248 44.0958 40.5946 43.8255 40.2942C43.5474 39.985 43.1873 39.8298 42.7652 39.8298V40.0798V40.3298C43.0511 40.3298 43.2741 40.4289 43.4538 40.6286C43.6413 40.8371 43.7946 41.1703 43.8937 41.6564L44.1387 41.6064ZM42.7652 40.0798V39.8298C42.2136 39.8298 41.7822 40.0966 41.4883 40.589L41.7029 40.7171L41.9176 40.8452C42.1309 40.4878 42.4077 40.3298 42.7652 40.3298V40.0798ZM41.7029 40.7171L41.488 40.5895C41.2044 41.067 41.0774 41.7321 41.0774 42.555H41.3274H41.5774C41.5774 41.7706 41.7008 41.2104 41.9179 40.8447L41.7029 40.7171ZM41.3274 42.555H41.0774C41.0774 43.3922 41.2146 44.0663 41.5225 44.5434L41.7326 44.4077L41.9426 44.2721C41.7104 43.9125 41.5774 43.3515 41.5774 42.555H41.3274ZM41.7326 44.4077L41.523 44.5441C41.8331 45.0205 42.2647 45.2803 42.8047 45.2803V45.0303V44.7803C42.4554 44.7803 42.1723 44.625 41.9421 44.2714L41.7326 44.4077ZM42.8047 45.0303V45.2803C43.2359 45.2803 43.6054 45.1066 43.9001 44.7769L43.7138 44.6103L43.5274 44.4437C43.3215 44.6739 43.0849 44.7803 42.8047 44.7803V45.0303ZM43.7138 44.6103L43.9001 44.7769C44.1881 44.4549 44.3504 44.0689 44.3878 43.6285L44.1387 43.6074L43.8896 43.5863C43.861 43.9231 43.7401 44.2058 43.5274 44.4437L43.7138 44.6103ZM51.2334 45.9492V46.1992H51.4834V45.9492H51.2334ZM50.018 45.9492H49.768V46.1992H50.018V45.9492ZM50.018 43.0194H50.268V42.7694H50.018V43.0194ZM47.4439 43.0194V42.7694H47.1939V43.0194H47.4439ZM47.4439 45.9492V46.1992H47.6939V45.9492H47.4439ZM46.2285 45.9492H45.9785V46.1992H46.2285V45.9492ZM46.2285 39.2053V38.9553H45.9785V39.2053H46.2285ZM47.4439 39.2053H47.6939V38.9553H47.4439V39.2053ZM47.4439 41.977H47.1939V42.227H47.4439V41.977ZM50.018 41.977V42.227H50.268V41.977H50.018ZM50.018 39.2053V38.9553H49.768V39.2053H50.018ZM51.2334 39.2053H51.4834V38.9553H51.2334V39.2053ZM51.2334 45.9492V45.6992H50.018V45.9492V46.1992H51.2334V45.9492ZM50.018 45.9492H50.268V43.0194H50.018H49.768V45.9492H50.018ZM50.018 43.0194V42.7694H47.4439V43.0194V43.2694H50.018V43.0194ZM47.4439 43.0194H47.1939V45.9492H47.4439H47.6939V43.0194H47.4439ZM47.4439 45.9492V45.6992H46.2285V45.9492V46.1992H47.4439V45.9492ZM46.2285 45.9492H46.4785V39.2053H46.2285H45.9785V45.9492H46.2285ZM46.2285 39.2053V39.4553H47.4439V39.2053V38.9553H46.2285V39.2053ZM47.4439 39.2053H47.1939V41.977H47.4439H47.6939V39.2053H47.4439ZM47.4439 41.977V42.227H50.018V41.977V41.727H47.4439V41.977ZM50.018 41.977H50.268V39.2053H50.018H49.768V41.977H50.018ZM50.018 39.2053V39.4553H51.2334V39.2053V38.9553H50.018V39.2053ZM51.2334 39.2053H50.9834V45.9492H51.2334H51.4834V39.2053H51.2334ZM58.0119 45.9492V46.1992H58.3595L58.2489 45.8697L58.0119 45.9492ZM56.7126 45.9492L56.4755 46.0287L56.5327 46.1992H56.7126V45.9492ZM56.174 44.3435L56.411 44.264L56.3539 44.0935H56.174V44.3435ZM53.5802 44.3435V44.0935H53.3993L53.3427 44.2653L53.5802 44.3435ZM53.0515 45.9492V46.1992H53.2324L53.289 46.0274L53.0515 45.9492ZM52.014 45.9492L51.7767 45.8705L51.6676 46.1992H52.014V45.9492ZM54.2521 39.2053V38.9553H54.0717L54.0148 39.1265L54.2521 39.2053ZM55.7491 39.2053L55.9861 39.1257L55.9289 38.9553H55.7491V39.2053ZM55.8479 43.3702V43.6202H56.1926L56.0856 43.2926L55.8479 43.3702ZM54.8648 40.3614L55.1024 40.2837L54.8648 39.5565L54.6271 40.2837L54.8648 40.3614ZM53.8816 43.3702L53.6439 43.2926L53.5369 43.6202H53.8816V43.3702ZM58.0119 45.9492V45.6992H56.7126V45.9492V46.1992H58.0119V45.9492ZM56.7126 45.9492L56.9496 45.8697L56.411 44.264L56.174 44.3435L55.937 44.423L56.4755 46.0287L56.7126 45.9492ZM56.174 44.3435V44.0935H53.5802V44.3435V44.5935H56.174V44.3435ZM53.5802 44.3435L53.3427 44.2653L52.8141 45.871L53.0515 45.9492L53.289 46.0274L53.8177 44.4217L53.5802 44.3435ZM53.0515 45.9492V45.6992H52.014V45.9492V46.1992H53.0515V45.9492ZM52.014 45.9492L52.2513 46.028L54.4894 39.284L54.2521 39.2053L54.0148 39.1265L51.7767 45.8705L52.014 45.9492ZM54.2521 39.2053V39.4553H55.7491V39.2053V38.9553H54.2521V39.2053ZM55.7491 39.2053L55.5121 39.2848L57.7749 46.0287L58.0119 45.9492L58.2489 45.8697L55.9861 39.1257L55.7491 39.2053ZM55.8479 43.3702L56.0856 43.2926L55.1024 40.2837L54.8648 40.3614L54.6271 40.439L55.6103 43.4479L55.8479 43.3702ZM54.8648 40.3614L54.6271 40.2837L53.6439 43.2926L53.8816 43.3702L54.1192 43.4479L55.1024 40.439L54.8648 40.3614ZM53.8816 43.3702V43.6202H55.8479V43.3702V43.1202H53.8816V43.3702ZM64.084 45.9492V46.1992H64.452L64.3164 45.8571L64.084 45.9492ZM62.7994 45.9492L62.5655 46.0376L62.6266 46.1992H62.7994V45.9492ZM61.752 43.1775L61.9858 43.0892L61.9248 42.9275H61.752V43.1775ZM60.0425 43.1775V42.9275H59.7925V43.1775H60.0425ZM60.0425 45.9492V46.1992H60.2925V45.9492H60.0425ZM58.8271 45.9492H58.5771V46.1992H58.8271V45.9492ZM58.8271 39.2053V38.9553H58.5771V39.2053H58.8271ZM63.5454 39.7586L63.3718 39.9385L63.3726 39.9392L63.5454 39.7586ZM62.9032 42.97L62.8098 42.7381L62.5791 42.8309L62.6707 43.0621L62.9032 42.97ZM60.0425 42.2042H59.7925V42.4542H60.0425V42.2042ZM62.5375 40.4503L62.3729 40.6385L62.3746 40.6399L62.5375 40.4503ZM60.0425 40.1736V39.9236H59.7925V40.1736H60.0425ZM64.084 45.9492V45.6992H62.7994V45.9492V46.1992H64.084V45.9492ZM62.7994 45.9492L63.0333 45.8608L61.9858 43.0892L61.752 43.1775L61.5181 43.2659L62.5655 46.0376L62.7994 45.9492ZM61.752 43.1775V42.9275H60.0425V43.1775V43.4275H61.752V43.1775ZM60.0425 43.1775H59.7925V45.9492H60.0425H60.2925V43.1775H60.0425ZM60.0425 45.9492V45.6992H58.8271V45.9492V46.1992H60.0425V45.9492ZM58.8271 45.9492H59.0771V39.2053H58.8271H58.5771V45.9492H58.8271ZM58.8271 39.2053V39.4553H61.752V39.2053V38.9553H58.8271V39.2053ZM61.752 39.2053V39.4553C62.5343 39.4553 63.0559 39.6335 63.3718 39.9385L63.5454 39.7586L63.7191 39.5788C63.2708 39.146 62.5967 38.9553 61.752 38.9553V39.2053ZM63.5454 39.7586L63.3726 39.9392C63.7001 40.2526 63.8685 40.659 63.8685 41.1815H64.1185H64.3685C64.3685 40.538 64.155 39.9958 63.7183 39.578L63.5454 39.7586ZM64.1185 41.1815H63.8685C63.8685 41.5748 63.7771 41.8889 63.6079 42.1378C63.4387 42.3868 63.1788 42.5896 62.8098 42.7381L62.9032 42.97L62.9965 43.2019C63.4378 43.0243 63.7856 42.766 64.0215 42.4188C64.2575 42.0716 64.3685 41.6545 64.3685 41.1815H64.1185ZM62.9032 42.97L62.6707 43.0621L63.8516 46.0413L64.084 45.9492L64.3164 45.8571L63.1356 42.8779L62.9032 42.97ZM60.0425 42.2042V42.4542H61.5544V42.2042V41.9542H60.0425V42.2042ZM61.5544 42.2042V42.4542C62.0209 42.4542 62.4171 42.357 62.6958 42.117L62.5326 41.9275L62.3694 41.7381C62.2199 41.867 61.964 41.9542 61.5544 41.9542V42.2042ZM62.5326 41.9275L62.6958 42.117C62.9732 41.878 63.1037 41.5507 63.1037 41.1667H62.8537H62.6037C62.6037 41.4282 62.5202 41.6082 62.3694 41.7381L62.5326 41.9275ZM62.8537 41.1667H63.1037C63.1037 40.8029 62.9706 40.4928 62.7005 40.2607L62.5375 40.4503L62.3746 40.6399C62.5261 40.7701 62.6037 40.9376 62.6037 41.1667H62.8537ZM62.5375 40.4503L62.7022 40.2622C62.4319 40.0256 62.071 39.9236 61.6532 39.9236V40.1736V40.4236C61.9929 40.4236 62.2216 40.5061 62.3729 40.6384L62.5375 40.4503ZM61.6532 40.1736V39.9236H60.0425V40.1736V40.4236H61.6532V40.1736ZM60.0425 40.1736H59.7925V42.2042H60.0425H60.2925V40.1736H60.0425ZM66.5444 45.9492V46.1992H66.7944V45.9492H66.5444ZM65.329 45.9492H65.079V46.1992H65.329V45.9492ZM65.329 39.2053V38.9553H65.079V39.2053H65.329ZM66.5444 39.2053H66.7944V38.9553H66.5444V39.2053ZM66.5444 45.9492V45.6992H65.329V45.9492V46.1992H66.5444V45.9492ZM65.329 45.9492H65.579V39.2053H65.329H65.079V45.9492H65.329ZM65.329 39.2053V39.4553H66.5444V39.2053V38.9553H65.329V39.2053ZM66.5444 39.2053H66.2944V45.9492H66.5444H66.7944V39.2053H66.5444ZM70.3833 45.9492V46.1992H70.6333V45.9492H70.3833ZM69.0789 45.9492H68.8289V46.1992H69.0789V45.9492ZM69.0789 40.2477H69.3289V39.9977H69.0789V40.2477ZM67.2855 40.2477H67.0355V40.4977H67.2855V40.2477ZM67.2855 39.2053V38.9553H67.0355V39.2053H67.2855ZM72.1767 39.2053H72.4267V38.9553H72.1767V39.2053ZM72.1767 40.2477V40.4977H72.4267V40.2477H72.1767ZM70.3833 40.2477V39.9977H70.1333V40.2477H70.3833ZM70.3833 45.9492V45.6992H69.0789V45.9492V46.1992H70.3833V45.9492ZM69.0789 45.9492H69.3289V40.2477H69.0789H68.8289V45.9492H69.0789ZM69.0789 40.2477V39.9977H67.2855V40.2477V40.4977H69.0789V40.2477ZM67.2855 40.2477H67.5355V39.2053H67.2855H67.0355V40.2477H67.2855ZM67.2855 39.2053V39.4553H72.1767V39.2053V38.9553H67.2855V39.2053ZM72.1767 39.2053H71.9267V40.2477H72.1767H72.4267V39.2053H72.1767ZM72.1767 40.2477V39.9977H70.3833V40.2477V40.4977H72.1767V40.2477ZM70.3833 40.2477H70.1333V45.9492H70.3833H70.6333V40.2477H70.3833ZM75.6302 45.9492V46.1992H75.8802V45.9492H75.6302ZM74.3407 45.9492H74.0907V46.1992H74.3407V45.9492ZM74.3407 43.1034H74.5907V43.0352L74.5561 42.9765L74.3407 43.1034ZM72.0433 39.2053V38.9553H71.6058L71.8279 39.3322L72.0433 39.2053ZM73.5156 39.2053L73.7323 39.0806L73.6602 38.9553H73.5156V39.2053ZM75.1164 41.9868L74.8997 42.1115L75.1212 42.4964L75.3354 42.1074L75.1164 41.9868ZM76.648 39.2053V38.9553H76.5002L76.429 39.0847L76.648 39.2053ZM77.814 39.2053L78.0321 39.3274L78.2406 38.9553H77.814V39.2053ZM75.6302 43.1034L75.4121 42.9812L75.3802 43.0382V43.1034H75.6302ZM75.6302 45.9492V45.6992H74.3407V45.9492V46.1992H75.6302V45.9492ZM74.3407 45.9492H74.5907V43.1034H74.3407H74.0907V45.9492H74.3407ZM74.3407 43.1034L74.5561 42.9765L72.2587 39.0783L72.0433 39.2053L71.8279 39.3322L74.1253 43.2304L74.3407 43.1034ZM72.0433 39.2053V39.4553H73.5156V39.2053V38.9553H72.0433V39.2053ZM73.5156 39.2053L73.2989 39.33L74.8997 42.1115L75.1164 41.9868L75.3331 41.8621L73.7323 39.0806L73.5156 39.2053ZM75.1164 41.9868L75.3354 42.1074L76.867 39.3258L76.648 39.2053L76.429 39.0847L74.8974 41.8663L75.1164 41.9868ZM76.648 39.2053V39.4553H77.814V39.2053V38.9553H76.648V39.2053ZM77.814 39.2053L77.5959 39.0831L75.4121 42.9812L75.6302 43.1034L75.8483 43.2256L78.0321 39.3274L77.814 39.2053ZM75.6302 43.1034H75.3802V45.9492H75.6302H75.8802V43.1034H75.6302Z" fill="white"/>
<path d="M95 45.3492H103.218C104.019 45.3492 104.668 44.9065 104.668 44.3603V43.2182C104.668 42.672 104.019 42.2292 103.218 42.2292L95 42.5" stroke="white" stroke-width="0.5" stroke-miterlimit="10" stroke-linecap="round"/>
<path d="M88.5 45.3492H85.4778C84.677 45.3492 84.0278 44.9065 84.0278 44.3603V43.2182C84.0278 42.672 84.677 42.2292 85.4778 42.2292H89" stroke="white" stroke-width="0.5" stroke-miterlimit="10" stroke-linecap="round"/>
<path d="M110.278 27.5944L107.708 27.6055C106.771 27.6096 106.017 28.0423 106.024 28.572L106.652 74.7966C106.659 75.3263 107.425 75.7524 108.362 75.7483L110.932 75.7372C111.869 75.7331 112.623 75.3004 112.616 74.7707L111.988 28.5461C111.981 28.0164 111.215 27.5903 110.278 27.5944Z" stroke="white" stroke-width="0.5" stroke-miterlimit="10"/>
<path d="M45.8253 71.6532L45.8525 71.4047L45.5978 71.3767L45.5762 71.6321L45.8253 71.6532ZM46.8335 71.7637L47.0821 71.7904L47.1087 71.5424L46.8608 71.5152L46.8335 71.7637ZM46.1304 73.2584L46.3045 73.4378L46.3045 73.4378L46.1304 73.2584ZM43.203 73.4265L43.0456 73.6207L43.0464 73.6213L43.203 73.4265ZM42.7873 68.4869L42.9864 68.6381L42.9868 68.6376L42.7873 68.4869ZM46.8335 69.7561L46.8597 70.0047L47.1196 69.9774L47.0807 69.719L46.8335 69.7561ZM45.8253 69.8622L45.5803 69.9122L45.6257 70.1346L45.8514 70.1109L45.8253 69.8622ZM43.6452 69.0662L43.4305 68.9381L43.4302 68.9386L43.6452 69.0662ZM43.6717 72.3696L43.4617 72.5052L43.4622 72.5059L43.6717 72.3696ZM45.8253 71.6532L45.798 71.9017L46.8063 72.0122L46.8335 71.7637L46.8608 71.5152L45.8525 71.4047L45.8253 71.6532ZM46.8335 71.7637L46.5849 71.7371C46.5258 72.2884 46.3148 72.7309 45.9563 73.079L46.1304 73.2584L46.3045 73.4378C46.7537 73.0017 47.0115 72.4478 47.0821 71.7904L46.8335 71.7637ZM46.1304 73.2584L45.9563 73.079C45.6099 73.4152 45.1487 73.5921 44.5473 73.5921V73.8421V74.0921C45.2548 74.0921 45.849 73.8799 46.3045 73.4378L46.1304 73.2584ZM44.5473 73.8421V73.5921C44.0386 73.5921 43.65 73.465 43.3595 73.2316L43.203 73.4265L43.0464 73.6213C43.4457 73.9422 43.9534 74.0921 44.5473 74.0921V73.8421ZM43.203 73.4265L43.3603 73.2322C43.057 72.9864 42.8167 72.6485 42.6442 72.2077L42.4114 72.2988L42.1786 72.3899C42.3776 72.8984 42.6649 73.3123 43.0456 73.6207L43.203 73.4265ZM42.4114 72.2988L42.6442 72.2077C42.4711 71.7654 42.3828 71.2735 42.3828 70.729H42.1328H41.8828C41.8828 71.3283 41.9802 71.8829 42.1786 72.3899L42.4114 72.2988ZM42.1328 70.729H42.3828C42.3828 69.8486 42.5912 69.1588 42.9864 68.6381L42.7873 68.4869L42.5881 68.3358C42.1107 68.9648 41.8828 69.7697 41.8828 70.729H42.1328ZM42.7873 68.4869L42.9868 68.6376C43.3729 68.1262 43.8969 67.8702 44.5871 67.8702V67.6202V67.3702C43.7501 67.3702 43.0742 67.692 42.5878 68.3363L42.7873 68.4869ZM44.5871 67.6202V67.8702C45.1296 67.8702 45.5651 68.0353 45.9119 68.3564L46.0817 68.173L46.2516 67.9895C45.8025 67.5737 45.2415 67.3702 44.5871 67.3702V67.6202ZM46.0817 68.173L45.9119 68.3564C46.2577 68.6766 46.4891 69.1465 46.5863 69.7932L46.8335 69.7561L47.0807 69.719C46.9715 68.9919 46.7017 68.4063 46.2516 67.9895L46.0817 68.173ZM46.8335 69.7561L46.8073 69.5075L45.7991 69.6136L45.8253 69.8622L45.8514 70.1109L46.8597 70.0047L46.8335 69.7561ZM45.8253 69.8622L46.0702 69.8123C45.9727 69.334 45.8108 68.9439 45.5645 68.6702C45.3104 68.3877 44.9809 68.2458 44.5959 68.2458V68.4958V68.7458C44.8447 68.7458 45.0371 68.8316 45.1928 69.0046C45.3563 69.1864 45.4921 69.4795 45.5803 69.9122L45.8253 69.8622ZM44.5959 68.4958V68.2458C44.092 68.2458 43.6978 68.4903 43.4305 68.9381L43.6452 69.0662L43.8598 69.1944C44.0466 68.8816 44.2861 68.7458 44.5959 68.7458V68.4958ZM43.6452 69.0662L43.4302 68.9386C43.1729 69.3719 43.0591 69.9727 43.0591 70.7113H43.3091H43.5591C43.5591 70.0112 43.6693 69.5153 43.8601 69.1939L43.6452 69.0662ZM43.3091 70.7113H43.0591C43.0591 71.4627 43.182 72.0721 43.4617 72.5052L43.6717 72.3696L43.8817 72.234C43.6779 71.9183 43.5591 71.4221 43.5591 70.7113H43.3091ZM43.6717 72.3696L43.4622 72.5059C43.7438 72.9388 44.138 73.1768 44.6313 73.1768V72.9268V72.6768C44.3286 72.6768 44.083 72.5433 43.8812 72.2332L43.6717 72.3696ZM44.6313 72.9268V73.1768C45.0252 73.1768 45.3628 73.0178 45.6313 72.7175L45.445 72.5509L45.2586 72.3842C45.079 72.5851 44.8742 72.6768 44.6313 72.6768V72.9268ZM45.445 72.5509L45.6313 72.7175C45.893 72.4249 46.0405 72.074 46.0744 71.6743L45.8253 71.6532L45.5762 71.6321C45.5511 71.9282 45.445 72.1757 45.2586 72.3842L45.445 72.5509ZM55.8886 73.7493V73.9993H56.1386V73.7493H55.8886ZM54.8008 73.7493H54.5508V73.9993H54.8008V73.7493ZM54.8008 71.127H55.0508V70.877H54.8008V71.127ZM52.4968 71.127V70.877H52.2468V71.127H52.4968ZM52.4968 73.7493V73.9993H52.7468V73.7493H52.4968ZM51.409 73.7493H51.159V73.9993H51.409V73.7493ZM51.409 67.7131V67.4631H51.159V67.7131H51.409ZM52.4968 67.7131H52.7468V67.4631H52.4968V67.7131ZM52.4968 70.1939H52.2468V70.4439H52.4968V70.1939ZM54.8008 70.1939V70.4439H55.0508V70.1939H54.8008ZM54.8008 67.7131V67.4631H54.5508V67.7131H54.8008ZM55.8886 67.7131H56.1386V67.4631H55.8886V67.7131ZM55.8886 73.7493V73.4993H54.8008V73.7493V73.9993H55.8886V73.7493ZM54.8008 73.7493H55.0508V71.127H54.8008H54.5508V73.7493H54.8008ZM54.8008 71.127V70.877H52.4968V71.127V71.377H54.8008V71.127ZM52.4968 71.127H52.2468V73.7493H52.4968H52.7468V71.127H52.4968ZM52.4968 73.7493V73.4993H51.409V73.7493V73.9993H52.4968V73.7493ZM51.409 73.7493H51.659V67.7131H51.409H51.159V73.7493H51.409ZM51.409 67.7131V67.9631H52.4968V67.7131V67.4631H51.409V67.7131ZM52.4968 67.7131H52.2468V70.1939H52.4968H52.7468V67.7131H52.4968ZM52.4968 70.1939V70.4439H54.8008V70.1939V69.9439H52.4968V70.1939ZM54.8008 70.1939H55.0508V67.7131H54.8008H54.5508V70.1939H54.8008ZM54.8008 67.7131V67.9631H55.8886V67.7131V67.4631H54.8008V67.7131ZM55.8886 67.7131H55.6386V73.7493H55.8886H56.1386V67.7131H55.8886ZM61.2822 72.94L61.0812 73.0888L61.0817 73.0894L61.2822 72.94ZM61.3264 68.5091L61.5211 68.6658L61.5215 68.6653L61.3264 68.5091ZM65.0631 68.5091L64.8646 68.6611L64.8655 68.6622L65.0631 68.5091ZM65.0365 72.9842L64.8438 72.8251L64.8437 72.8252L65.0365 72.9842ZM64.2317 69.0884L64.0143 69.2117L64.0147 69.2124L64.2317 69.0884ZM62.1445 72.4049L61.9325 72.5374L61.9337 72.5394L62.1445 72.4049ZM63.1571 73.8421V73.5921C62.4279 73.5921 61.8799 73.3238 61.4826 72.7906L61.2822 72.94L61.0817 73.0894C61.5807 73.7591 62.2827 74.0921 63.1571 74.0921V73.8421ZM61.2822 72.94L61.4831 72.7913C61.0753 72.2404 60.8644 71.5522 60.8644 70.7113H60.6144H60.3644C60.3644 71.6392 60.5987 72.4369 61.0812 73.0888L61.2822 72.94ZM60.6144 70.7113H60.8644C60.8644 69.8802 61.0878 69.2041 61.5211 68.6658L61.3264 68.5091L61.1316 68.3523C60.6157 68.9933 60.3644 69.7853 60.3644 70.7113H60.6144ZM61.3264 68.5091L61.5215 68.6653C61.9473 68.1337 62.5012 67.8702 63.2058 67.8702V67.6202V67.3702C62.3538 67.3702 61.6547 67.6993 61.1313 68.3528L61.3264 68.5091ZM63.2058 67.6202V67.8702C63.9168 67.8702 64.4606 68.1338 64.8646 68.6611L65.0631 68.5091L65.2615 68.357C64.7575 67.6992 64.0632 67.3702 63.2058 67.3702V67.6202ZM65.0631 68.5091L64.8655 68.6622C65.2823 69.2001 65.4985 69.8817 65.4985 70.7245H65.7485H65.9985C65.9985 69.7926 65.7577 68.9972 65.2607 68.3559L65.0631 68.5091ZM65.7485 70.7245H65.4985C65.4985 71.6129 65.2729 72.3053 64.8438 72.8251L65.0365 72.9842L65.2293 73.1434C65.7494 72.5135 65.9985 71.6993 65.9985 70.7245H65.7485ZM65.0365 72.9842L64.8437 72.8252C64.4223 73.3361 63.8684 73.5921 63.1571 73.5921V73.8421V74.0921C64.0084 74.0921 64.7074 73.7763 65.2294 73.1433L65.0365 72.9842ZM63.166 72.9666V73.2166C63.6385 73.2166 64.0382 73.0165 64.3527 72.6405L64.161 72.4801L63.9692 72.3197C63.7412 72.5923 63.4777 72.7166 63.166 72.7166V72.9666ZM64.161 72.4801L64.3527 72.6405C64.6846 72.2438 64.8178 71.5761 64.8178 70.7157H64.5678H64.3178C64.3178 71.5593 64.1798 72.0679 63.9692 72.3197L64.161 72.4801ZM64.5678 70.7157H64.8178C64.8178 70.0007 64.703 69.4092 64.4488 68.9643L64.2317 69.0884L64.0147 69.2124C64.2086 69.5517 64.3178 70.0451 64.3178 70.7157H64.5678ZM64.2317 69.0884L64.4492 68.965C64.1786 68.488 63.7455 68.2458 63.1881 68.2458V68.4958V68.7458C63.5741 68.7458 63.8367 68.8986 64.0143 69.2117L64.2317 69.0884ZM63.1881 68.4958V68.2458C62.6416 68.2458 62.2091 68.4733 61.9277 68.9266C61.6585 69.3603 61.5407 69.9786 61.5407 70.7466H61.7907H62.0407C62.0407 70.0141 62.1559 69.507 62.3525 69.1904C62.5368 68.8934 62.803 68.7458 63.1881 68.7458V68.4958ZM61.7907 70.7466H61.5407C61.5407 71.4948 61.6606 72.1025 61.9325 72.5374L62.1445 72.4049L62.3565 72.2724C62.1566 71.9527 62.0407 71.4548 62.0407 70.7466H61.7907ZM62.1445 72.4049L61.9337 72.5394C62.2182 72.9854 62.638 73.2166 63.166 73.2166V72.9666V72.7166C62.8096 72.7166 62.5484 72.5733 62.3553 72.2705L62.1445 72.4049ZM71.5622 73.7493V73.9993H71.8122V73.7493H71.5622ZM70.4743 73.7493H70.2243V73.9993H70.4743V73.7493ZM70.4743 67.7131V67.4631H70.2243V67.7131H70.4743ZM71.5622 67.7131H71.8122V67.4631H71.5622V67.7131ZM71.5622 73.7493V73.4993H70.4743V73.7493V73.9993H71.5622V73.7493ZM70.4743 73.7493H70.7243V67.7131H70.4743H70.2243V73.7493H70.4743ZM70.4743 67.7131V67.9631H71.5622V67.7131V67.4631H70.4743V67.7131ZM71.5622 67.7131H71.3122V73.7493H71.5622H71.8122V67.7131H71.5622ZM81.3071 73.7493V73.9993H81.6751L81.5395 73.6572L81.3071 73.7493ZM80.1574 73.7493L79.9235 73.8376L79.9846 73.9993H80.1574V73.7493ZM79.2199 71.2685L79.4537 71.1801L79.3927 71.0185H79.2199V71.2685ZM77.6898 71.2685V71.0185H77.4398V71.2685H77.6898ZM77.6898 73.7493V73.9993H77.9398V73.7493H77.6898ZM76.602 73.7493H76.352V73.9993H76.602V73.7493ZM76.602 67.7131V67.4631H76.352V67.7131H76.602ZM80.8251 68.2084L80.6515 68.3882L80.6523 68.389L80.8251 68.2084ZM80.2502 71.0827L80.1569 70.8508L79.9262 70.9437L80.0178 71.1748L80.2502 71.0827ZM77.6898 70.3973H77.4398V70.6473H77.6898V70.3973ZM79.923 68.8274L79.7584 69.0156L79.76 69.0171L79.923 68.8274ZM77.6898 68.5798V68.3298H77.4398V68.5798H77.6898ZM81.3071 73.7493V73.4993H80.1574V73.7493V73.9993H81.3071V73.7493ZM80.1574 73.7493L80.3912 73.6609L79.4537 71.1801L79.2199 71.2685L78.986 71.3568L79.9235 73.8376L80.1574 73.7493ZM79.2199 71.2685V71.0185H77.6898V71.2685V71.5185H79.2199V71.2685ZM77.6898 71.2685H77.4398V73.7493H77.6898H77.9398V71.2685H77.6898ZM77.6898 73.7493V73.4993H76.602V73.7493V73.9993H77.6898V73.7493ZM76.602 73.7493H76.852V67.7131H76.602H76.352V73.7493H76.602ZM76.602 67.7131V67.9631H79.2199V67.7131V67.4631H76.602V67.7131ZM79.2199 67.7131V67.9631C79.9168 67.9631 80.3757 68.1219 80.6515 68.3882L80.8251 68.2084L80.9987 68.0285C80.5906 67.6344 79.9792 67.4631 79.2199 67.4631V67.7131ZM80.8251 68.2084L80.6523 68.389C80.9396 68.664 81.0881 69.0206 81.0881 69.4819H81.3381H81.5881C81.5881 68.8996 81.3945 68.4072 80.9979 68.0277L80.8251 68.2084ZM81.3381 69.4819H81.0881C81.0881 69.8298 81.0072 70.1055 80.8593 70.3231C80.7114 70.5409 80.4833 70.7194 80.1569 70.8508L80.2502 71.0827L80.3436 71.3147C80.7424 71.1542 81.0582 70.92 81.2729 70.6041C81.4876 70.2881 81.5881 69.9094 81.5881 69.4819H81.3381ZM80.2502 71.0827L80.0178 71.1748L81.0747 73.8414L81.3071 73.7493L81.5395 73.6572L80.4826 70.9906L80.2502 71.0827ZM77.6898 70.3973V70.6473H79.043V70.3973V70.1473H77.6898V70.3973ZM79.043 70.3973V70.6473C79.4635 70.6473 79.8255 70.5598 80.0817 70.3391L79.9186 70.1497L79.7554 69.9603C79.6283 70.0697 79.4066 70.1473 79.043 70.1473V70.3973ZM79.9186 70.1497L80.0817 70.3391C80.3367 70.1194 80.456 69.8188 80.456 69.4687H80.206H79.956C79.956 69.6963 79.8837 69.8497 79.7554 69.9603L79.9186 70.1497ZM80.206 69.4687H80.456C80.456 69.136 80.3339 68.851 80.0859 68.6378L79.923 68.8274L79.76 69.0171C79.8894 69.1282 79.956 69.2707 79.956 69.4687H80.206ZM79.923 68.8274L80.0876 68.6393C79.8394 68.4221 79.5095 68.3298 79.1314 68.3298V68.5798V68.8298C79.4314 68.8298 79.6292 68.9026 79.7584 69.0156L79.923 68.8274ZM79.1314 68.5798V68.3298H77.6898V68.5798V68.8298H79.1314V68.5798ZM77.6898 68.5798H77.4398V70.3973H77.6898H77.9398V68.5798H77.6898Z" fill="white"/>
</svg>
