<svg width="65" height="45" viewBox="0 0 65 45" fill="none" xmlns="http://www.w3.org/2000/svg">
<path d="M7.30281 39.6313C7.27176 30.076 7.24206 20.5193 7.21101 10.964C8.03991 9.79492 11.7389 4.84447 18.2851 3.72937C26.6078 2.31322 32.4844 8.29912 33.1688 9.02137C34.0261 8.03722 38.0518 3.63352 44.4143 3.39727C52.8613 3.08407 57.886 10.3957 58.3126 11.0396V39.6326H53.8508C53.8333 30.3352 53.8157 21.0391 53.7968 11.7416C53.3108 11.153 50.0087 7.28122 44.7343 7.41487C40.2887 7.52692 37.4335 10.4078 36.7841 11.099H29.5346C28.8785 10.4848 24.7381 6.74257 19.0154 7.64977C15.095 8.27077 12.5854 10.7318 11.7052 11.6849V37.2958C12.0278 37.2769 12.3586 37.2539 12.6934 37.2256C13.1443 37.1878 13.583 37.1419 14.0096 37.0906C14.4686 38.3474 14.9276 39.6043 15.3866 40.8625C14.6293 41.146 13.1105 41.5928 11.2043 41.3012C9.30621 41.011 7.96026 40.1321 7.30281 39.6353V39.6313Z" stroke="white" stroke-width="1.62" stroke-miterlimit="10"/>
<path d="M11.6147 4.68922C11.8105 4.59472 12.1088 4.41787 12.3167 4.09387C12.7568 3.41212 12.3221 2.82622 12.5705 2.15122C12.9256 1.18867 14.5078 0.501522 15.527 0.879522C16.3721 1.19407 16.4747 2.10802 17.3387 2.22547C17.7856 2.28622 18.1865 2.09992 18.4646 1.92442" stroke="white" stroke-width="0.54" stroke-miterlimit="10"/>
<path d="M32.3426 11.9428L27.0074 23.5231L23.9686 16.3276C24.0617 16.2263 24.1144 16.1723 24.1144 16.1723C24.1144 16.1723 24.1913 16.0913 24.2669 16.0157C27.0128 13.2428 30.4418 12.2762 32.3426 11.9428Z" fill="white"/>
<path d="M29.3591 34.0922H22.6064C22.2676 33.6076 21.9598 33.1 21.6844 32.5708C19.4407 28.2508 19.982 23.6554 21.2605 20.5423C21.6412 19.6162 22.1312 18.7751 22.5983 18.0853L29.3591 34.0922Z" fill="white"/>
<path d="M44.1767 36.0376C42.1828 37.9357 38.851 40.1848 34.2677 40.1848H34.1651C30.4297 40.1578 26.8508 38.608 24.248 36.0376H44.1767Z" fill="white"/>
<path d="M45.4579 17.5574H31.8971L34.5634 11.77C38.9158 11.8915 42.9185 14.0555 45.4579 17.5574Z" fill="white"/>
<path d="M43.2493 22.1258C43.2493 22.79 43.225 23.7931 43.175 25.1323C43.1251 26.4728 43.1008 27.4786 43.1008 28.1482C43.1008 28.7786 43.1062 29.7209 43.1197 30.9778C43.1318 32.2346 43.1386 33.1769 43.1386 33.8074C43.1386 33.9977 43.0603 34.0936 42.905 34.0936C42.8119 34.0936 42.6715 34.0855 42.4852 34.0679C42.2989 34.0504 42.1585 34.0423 42.0653 34.0423C41.9654 34.0423 41.8129 34.0504 41.609 34.0679C41.4038 34.0855 41.2513 34.0936 41.1514 34.0936C41.0393 34.0936 40.9057 33.9977 40.7504 33.8074C39.4072 32.1266 37.37 29.6183 34.6403 26.2852C34.2178 25.7762 33.9721 25.4941 33.9032 25.436C33.8411 25.436 33.8101 25.5548 33.8101 25.7911C33.8101 26.6807 33.8249 28.0172 33.8573 29.7992C33.8884 31.5812 33.9046 32.9177 33.9046 33.8074C33.9046 33.9977 33.8425 34.0936 33.7183 34.0936C33.613 34.0936 33.451 34.0855 33.2336 34.0679C33.0163 34.0504 32.8543 34.0423 32.749 34.0423C32.6369 34.0423 32.4709 34.0504 32.2495 34.0679C32.0281 34.0855 31.862 34.0936 31.75 34.0936C31.5947 34.0936 31.5164 34.0355 31.5164 33.9208C31.5164 33.2849 31.5488 32.3278 31.615 31.048C31.6798 29.7682 31.7135 28.8083 31.7135 28.1671C31.7135 27.4678 31.6852 26.2082 31.6298 24.3884C31.6177 23.9146 31.5866 23.2045 31.5367 22.2568L31.5272 22.1447C31.5205 22.0583 31.5961 22.0124 31.7513 22.0057C32.155 22.0003 32.4722 21.9881 32.7031 21.9706C32.7895 21.9652 32.9555 21.9422 33.1972 21.9017C33.4024 21.8666 33.5644 21.8491 33.6818 21.8491C33.7372 21.8491 33.8344 21.9328 33.9707 22.1002C35.4017 23.9254 37.5901 26.6416 40.5385 30.2461C40.6694 30.3959 40.7909 30.5269 40.903 30.6362C40.9462 30.3932 40.9678 29.8384 40.9678 28.9717C40.9678 28.2211 40.9381 27.0938 40.8787 25.5913C40.8193 24.0887 40.7896 22.9655 40.7896 22.2203C40.7896 22.03 40.8517 21.9341 40.9759 21.9341C41.0879 21.9341 41.2567 21.9422 41.4848 21.9598C41.713 21.9773 41.8817 21.9854 41.9938 21.9854C42.1126 21.9854 42.2894 21.9773 42.5257 21.9598C42.7619 21.9422 42.9388 21.9341 43.0576 21.9341C43.1885 21.9341 43.2533 21.9976 43.2533 22.1245L43.2493 22.1258Z" stroke="white" stroke-width="0.54" stroke-miterlimit="10"/>
<path d="M64.181 5.70847V1.06582H60.0014" stroke="white" stroke-width="1.28655" stroke-miterlimit="10" stroke-linecap="round"/>
<path d="M5.28592 0.643274C3.73882 0.643274 2.19037 0.643274 0.643274 0.643274C0.643274 2.03647 0.643274 3.42967 0.643274 4.82287" stroke="white" stroke-width="1.28655" stroke-miterlimit="10" stroke-linecap="round"/>
<path d="M0.875475 39.7217C0.875475 41.2688 0.875475 42.8173 0.875475 44.3644C2.26867 44.3644 3.66188 44.3644 5.05508 44.3644" stroke="white" stroke-width="1.28655" stroke-miterlimit="10" stroke-linecap="round"/>
<path d="M59.5384 44.3644H64.181C64.181 42.9712 64.181 41.578 64.181 40.1848" stroke="white" stroke-width="1.28655" stroke-miterlimit="10" stroke-linecap="round"/>
<path d="M18.4646 12.0427H15.0397V13.9138H18.4646V12.0427Z" stroke="white" stroke-width="0.27" stroke-miterlimit="10"/>
</svg>
