<svg width="82" height="76" viewBox="0 0 82 76" fill="none" xmlns="http://www.w3.org/2000/svg">
<g clip-path="url(#clip0_19_104)">
<path d="M25.1376 34.5708H22.4727C17.6451 41.3116 12.8175 48.0524 7.98987 54.7949C15.8955 54.6183 23.8011 54.4417 31.7083 54.2651C32.7856 54.4547 34.3942 54.8451 36.1552 55.7474C38.4945 56.9462 39.2073 58.0754 40.7609 58.1823C42.3436 58.2908 42.8863 57.0337 45.1543 55.8527C47.0562 54.8629 48.9743 54.479 50.6607 54.3704C58.2131 54.6183 65.7672 54.8645 73.3196 55.1124C68.6961 48.2646 64.0727 41.4185 59.4492 34.5708C59.1317 34.5708 58.751 34.5708 58.3703 34.5708C58.0608 34.5708 57.7498 34.5708 57.4404 34.5708C57.4064 34.5708 57.3658 34.5708 57.3658 34.5708C57.3561 34.5708 57.3043 34.5708 57.2913 34.5708C56.8944 32.6333 56.4992 30.6957 56.1023 28.7566H49.1184C46.7403 33.662 44.3637 38.5673 41.9856 43.4727C39.1133 38.5673 36.241 33.662 33.3672 28.7566H26.3088C24.7731 36.3593 23.2373 43.9619 21.7032 51.5646H28.9834C29.949 47.6264 30.9145 43.6898 31.8816 39.7515C33.9617 43.7627 36.0418 47.7754 38.1219 51.7865H45.3422C47.2943 47.824 49.2464 43.8615 51.1969 39.899L53.797 51.6375H60.7808C59.642 45.948 58.5015 40.2586 57.3626 34.5692" stroke="white" stroke-width="0.324" stroke-miterlimit="10"/>
<path d="M34.101 13.3052H30.0024V21.0812C30.0024 25.3191 33.4433 28.7584 37.6796 28.7584H44.9356C49.1735 28.7584 52.6128 25.3175 52.6128 21.0812V13.3052H47.547" stroke="white" stroke-width="0.324" stroke-miterlimit="10"/>
<path d="M47.304 13.3052H47.547" stroke="white" stroke-width="0.324" stroke-miterlimit="10"/>
<path d="M37.827 36.4112V28.7583" stroke="white" stroke-width="0.324" stroke-miterlimit="10"/>
<path d="M45.6273 35.9656V28.7599" stroke="white" stroke-width="0.324" stroke-miterlimit="10"/>
<path d="M73.4687 55.2808V61.0529H50.6461C51.0851 61.4692 51.5258 61.8856 51.9648 62.3019H29.7951L31.3114 60.865H7.65131C7.71125 58.9032 7.77119 56.9413 7.82951 54.9779" stroke="white" stroke-width="0.31752" stroke-miterlimit="10"/>
<path d="M15.2799 44.3605C13.9839 42.0375 10.1007 34.3732 12.2213 25.1182C13.5902 19.1452 16.8367 15.2232 18.4615 13.3051C19.9779 11.5167 23.9922 6.8948 30.9922 4.36598C40.7463 0.840856 49.3323 3.89456 51.5468 4.76288C53.8585 5.66846 63.261 9.52892 67.6933 19.9682C72.8579 32.1328 67.0243 43.212 66.2451 44.6343" stroke="white" stroke-width="0.324" stroke-miterlimit="10"/>
<path d="M13.9952 46.4098C13.1188 44.9307 6.47678 33.2732 11.5992 19.9179C16.1563 8.04009 26.7009 3.47007 30.0024 2.23563C33.0415 1.09839 42.7065 -1.98609 53.4292 2.59365C55.6794 3.55431 65.333 7.99635 69.8058 19.0998C75.3154 32.7759 68.2992 44.9761 67.4439 46.4082" stroke="white" stroke-width="0.324" stroke-miterlimit="10"/>
<path d="M5.43515 65.2358L76.3847 65.3849" stroke="white" stroke-width="0.648" stroke-miterlimit="10"/>
<path d="M5.13867 73.7052H76.3847" stroke="white" stroke-width="0.648" stroke-miterlimit="10"/>
<path d="M5.4503 66.7663V66.6886H5.37261V66.7663H5.4503ZM7.95623 66.7663H8.03392V66.6886H7.95623V66.7663ZM7.95623 67.0563V67.134H8.03392V67.0563H7.95623ZM7.17506 67.443L7.24036 67.4009L7.2397 67.3999L7.17506 67.443ZM8.62911 69.6976L8.56382 69.7397L8.63484 69.8498L8.69738 69.7347L8.62911 69.6976ZM9.67325 67.7756L9.60505 67.7384L9.60498 67.7385L9.67325 67.7756ZM8.96943 67.0563H8.89173V67.134H8.96943V67.0563ZM8.96943 66.7663V66.6886H8.89173V66.7663H8.96943ZM11.1505 66.7663H11.2282V66.6886H11.1505V66.7663ZM11.1505 67.0563V67.134H11.2282V67.0563H11.1505ZM10.1412 67.6828L10.0732 67.6452L10.073 67.6456L10.1412 67.6828ZM8.82247 70.0998L8.75427 70.0626L8.74478 70.08V70.0998H8.82247ZM8.90368 72.1146L8.85658 72.1764L8.85812 72.1775L8.90368 72.1146ZM9.72739 72.1958H9.80508V72.1181H9.72739V72.1958ZM9.72739 72.4858V72.5635H9.80508V72.4858H9.72739ZM7.10158 72.4858H7.02389V72.5635H7.10158V72.4858ZM7.10158 72.1958V72.1181H7.02389V72.1958H7.10158ZM7.92142 72.1223L7.96966 72.1833L7.97116 72.182L7.92142 72.1223ZM8.01423 70.1501H8.09193V70.1273L8.07961 70.1081L8.01423 70.1501ZM6.2392 67.385L6.30458 67.3431L6.30428 67.3426L6.2392 67.385ZM5.9685 67.1375L5.93516 67.2077L5.93662 67.2084L5.9685 67.1375ZM5.4503 67.0563H5.37261V67.1324L5.44865 67.134L5.4503 67.0563ZM5.4503 66.7663V66.844H7.95623V66.7663V66.6886H5.4503V66.7663ZM7.95623 66.7663H7.87853V67.0563H7.95623H8.03392V66.7663H7.95623ZM7.95623 67.0563V66.9786H7.67779V67.0563V67.134H7.95623V67.0563ZM7.67779 67.0563V66.9786C7.56012 66.9786 7.46104 66.9832 7.38142 66.9927C7.30376 67.002 7.2372 67.0168 7.18957 67.0415L7.22533 67.1105L7.26109 67.1794C7.28307 67.168 7.32673 67.1558 7.39988 67.147C7.47108 67.1385 7.56343 67.134 7.67779 67.134V67.0563ZM7.22533 67.1105L7.18957 67.0415C7.10089 67.0875 7.04322 67.161 7.04322 67.2613H7.12092H7.19861C7.19861 67.2327 7.21055 67.2056 7.26109 67.1794L7.22533 67.1105ZM7.12092 67.2613H7.04322C7.04322 67.3432 7.06554 67.4188 7.11041 67.4861L7.17506 67.443L7.2397 67.3999C7.21238 67.359 7.19861 67.3135 7.19861 67.2613H7.12092ZM7.17506 67.443L7.10977 67.4852L8.56382 69.7397L8.62911 69.6976L8.69441 69.6555L7.24035 67.4009L7.17506 67.443ZM8.62911 69.6976L8.69738 69.7347L9.74152 67.8127L9.67325 67.7756L9.60498 67.7385L8.56085 69.6605L8.62911 69.6976ZM9.67325 67.7756L9.74146 67.8128C9.79433 67.7159 9.82055 67.6102 9.82055 67.4972H9.74286H9.66517C9.66517 67.5852 9.64499 67.6652 9.60505 67.7384L9.67325 67.7756ZM9.74286 67.4972H9.82055C9.82055 67.3444 9.76971 67.2154 9.66372 67.1188L9.61138 67.1762L9.55903 67.2336C9.62835 67.2968 9.66517 67.3818 9.66517 67.4972H9.74286ZM9.61138 67.1762L9.66372 67.1188C9.55719 67.0217 9.41083 66.9786 9.23626 66.9786V67.0563V67.134C9.38653 67.134 9.49025 67.1709 9.55903 67.2336L9.61138 67.1762ZM9.23626 67.0563V66.9786H8.96943V67.0563V67.134H9.23626V67.0563ZM8.96943 67.0563H9.04712V66.7663H8.96943H8.89173V67.0563H8.96943ZM8.96943 66.7663V66.844H11.1505V66.7663V66.6886H8.96943V66.7663ZM11.1505 66.7663H11.0728V67.0563H11.1505H11.2282V66.7663H11.1505ZM11.1505 67.0563V66.9786C10.8926 66.9786 10.6795 67.0236 10.5185 67.1214L10.5588 67.1878L10.5992 67.2542C10.7269 67.1767 10.9083 67.134 11.1505 67.134V67.0563ZM10.5588 67.1878L10.5185 67.1214C10.3574 67.2192 10.2101 67.3978 10.0732 67.6452L10.1412 67.6828L10.2092 67.7204C10.3404 67.4832 10.4715 67.3317 10.5992 67.2542L10.5588 67.1878ZM10.1412 67.6828L10.073 67.6456L8.75427 70.0626L8.82247 70.0998L8.89067 70.137L10.2094 67.72L10.1412 67.6828ZM8.82247 70.0998H8.74478V71.9096H8.82247H8.90017V70.0998H8.82247ZM8.82247 71.9096H8.74478C8.74478 72.0189 8.77622 72.1151 8.8566 72.1764L8.90368 72.1146L8.95077 72.0528C8.92287 72.0315 8.90017 71.9911 8.90017 71.9096H8.82247ZM8.90368 72.1146L8.85812 72.1775C8.9519 72.2454 9.0819 72.2735 9.23626 72.2735V72.1958V72.1181C9.09672 72.1181 9.00499 72.092 8.94925 72.0517L8.90368 72.1146ZM9.23626 72.1958V72.2735H9.72739V72.1958V72.1181H9.23626V72.1958ZM9.72739 72.1958H9.6497V72.4858H9.72739H9.80508V72.1958H9.72739ZM9.72739 72.4858V72.4081H7.10158V72.4858V72.5635H9.72739V72.4858ZM7.10158 72.4858H7.17927V72.1958H7.10158H7.02389V72.4858H7.10158ZM7.10158 72.1958V72.2735H7.61978V72.1958V72.1181H7.10158V72.1958ZM7.61978 72.1958V72.2735C7.76456 72.2735 7.88695 72.2487 7.96965 72.1832L7.92142 72.1223L7.8732 72.0614C7.83215 72.0939 7.75344 72.1181 7.61978 72.1181V72.1958ZM7.92142 72.1223L7.97116 72.182C8.05302 72.1138 8.09193 72.0198 8.09193 71.9096H8.01423H7.93654C7.93654 71.9799 7.91358 72.0277 7.87168 72.0626L7.92142 72.1223ZM8.01423 71.9096H8.09193V70.1501H8.01423H7.93654V71.9096H8.01423ZM8.01423 70.1501L8.07961 70.1081L6.30458 67.3431L6.2392 67.385L6.17382 67.427L7.94885 70.192L8.01423 70.1501ZM6.2392 67.385L6.30428 67.3426C6.22086 67.2147 6.12011 67.1206 6.00038 67.0667L5.9685 67.1375L5.93662 67.2084C6.02314 67.2473 6.10286 67.3182 6.17413 67.4275L6.2392 67.385ZM5.9685 67.1375L6.00183 67.0674C5.88276 67.0108 5.69567 66.9838 5.45195 66.9787L5.4503 67.0563L5.44865 67.134C5.68962 67.1391 5.84799 67.1663 5.93516 67.2077L5.9685 67.1375ZM5.4503 67.0563H5.52799V66.7663H5.4503H5.37261V67.0563H5.4503ZM15.4585 67.0293L15.4182 67.0957L15.4187 67.096L15.4585 67.0293ZM16.4485 68.0927L16.3796 68.1286L16.3798 68.129L16.4485 68.0927ZM15.4585 72.2461L15.4991 72.3124L15.4992 72.3123L15.4585 72.2461ZM12.8366 72.2538L12.7953 72.3196L12.7956 72.3198L12.8366 72.2538ZM11.8659 71.1749L11.7969 71.2105L11.7971 71.211L11.8659 71.1749ZM11.8543 68.0966L11.7855 68.0606L11.7854 68.0608L11.8543 68.0966ZM12.825 67.0331L12.8661 67.0991L12.8664 67.0989L12.825 67.0331ZM15.6094 71.2097L15.5369 71.1817L15.5367 71.1821L15.6094 71.2097ZM15.6248 68.0811L15.5517 68.1074L15.5518 68.1076L15.6248 68.0811ZM14.105 66.6464V66.7241C14.5726 66.7241 15.0099 66.8477 15.4182 67.0957L15.4585 67.0293L15.4989 66.9629C15.0667 66.7004 14.6017 66.5687 14.105 66.5687V66.6464ZM15.4585 67.0293L15.4187 67.096C15.8286 67.3409 16.1488 67.6844 16.3796 68.1286L16.4485 68.0927L16.5175 68.0569C16.274 67.5884 15.9341 67.2229 15.4984 66.9626L15.4585 67.0293ZM16.4485 68.0927L16.3798 68.129C16.6131 68.5704 16.7305 69.0695 16.7305 69.628H16.8082H16.8859C16.8859 69.047 16.7635 68.5226 16.5172 68.0564L16.4485 68.0927ZM16.8082 69.628H16.7305C16.7305 70.1865 16.6131 70.6883 16.3797 71.135L16.4485 71.171L16.5174 71.207C16.7635 70.7359 16.8859 70.209 16.8859 69.628H16.8082ZM16.4485 71.171L16.3797 71.135C16.1461 71.5821 15.8256 71.9298 15.4179 72.1799L15.4585 72.2461L15.4992 72.3123C15.932 72.0468 16.2715 71.6777 16.5174 71.207L16.4485 71.171ZM15.4585 72.2461L15.418 72.1798C15.012 72.4279 14.5825 72.5512 14.1282 72.5512V72.6289V72.7066C14.6124 72.7066 15.0698 72.5747 15.4991 72.3124L15.4585 72.2461ZM14.1282 72.6289V72.5512C13.6843 72.5512 13.2679 72.4305 12.8776 72.1878L12.8366 72.2538L12.7956 72.3198C13.2097 72.5773 13.6543 72.7066 14.1282 72.7066V72.6289ZM12.8366 72.2538L12.8779 72.188C12.4886 71.9434 12.174 71.5946 11.9347 71.1388L11.8659 71.1749L11.7971 71.211C12.0477 71.6884 12.3802 72.0589 12.7953 72.3196L12.8366 72.2538ZM11.8659 71.1749L11.935 71.1392C11.6988 70.6819 11.5801 70.1748 11.5801 69.6164H11.5024H11.4247C11.4247 70.1976 11.5484 70.7294 11.7969 71.2105L11.8659 71.1749ZM11.5024 69.6164H11.5801C11.5801 69.0655 11.695 68.5714 11.9233 68.1324L11.8543 68.0966L11.7854 68.0608C11.5445 68.5241 11.4247 69.0432 11.4247 69.6164H11.5024ZM11.8543 68.0966L11.9232 68.1326C12.1544 67.6904 12.4686 67.3465 12.8661 67.0991L12.825 67.0331L12.7839 66.9672C12.3615 67.2302 12.0287 67.5953 11.7855 68.0606L11.8543 68.0966ZM12.825 67.0331L12.8664 67.0989C13.2651 66.8481 13.6776 66.7241 14.105 66.7241V66.6464V66.5687C13.6456 66.5687 13.2048 66.7025 12.7836 66.9674L12.825 67.0331ZM14.1669 66.9442V66.8665C13.6386 66.8665 13.2086 67.0877 12.8826 67.5242L12.9449 67.5707L13.0071 67.6172C13.305 67.2183 13.6897 67.0219 14.1669 67.0219V66.9442ZM12.9449 67.5707L12.8826 67.5242C12.5553 67.9624 12.3993 68.6641 12.3993 69.6125H12.477H12.5546C12.5546 68.6738 12.7105 68.0142 13.0071 67.6172L12.9449 67.5707ZM12.477 69.6125H12.3993C12.3993 70.6386 12.5584 71.3705 12.8963 71.7847L12.9565 71.7356L13.0167 71.6865C12.7152 71.317 12.5546 70.6335 12.5546 69.6125H12.477ZM12.9565 71.7356L12.8963 71.7847C13.2295 72.1932 13.6467 72.4011 14.1437 72.4011V72.3234V72.2457C13.6971 72.2457 13.3228 72.0618 13.0167 71.6865L12.9565 71.7356ZM14.1437 72.3234V72.4011C14.4886 72.4011 14.7946 72.3079 15.0589 72.1199L15.0138 72.0566L14.9688 71.9933C14.7329 72.1611 14.4588 72.2457 14.1437 72.2457V72.3234ZM15.0138 72.0566L15.0589 72.1199C15.3251 71.9305 15.5314 71.6335 15.682 71.2373L15.6094 71.2097L15.5367 71.1821C15.3934 71.5593 15.2027 71.8269 14.9688 71.9933L15.0138 72.0566ZM15.6094 71.2097L15.6818 71.2377C15.8361 70.8387 15.9114 70.3202 15.9114 69.686H15.8337H15.756C15.756 70.3099 15.6817 70.8073 15.5369 71.1817L15.6094 71.2097ZM15.8337 69.686H15.9114C15.9114 68.9965 15.8416 68.4511 15.6979 68.0547L15.6248 68.0811L15.5518 68.1076C15.6865 68.4794 15.756 69.004 15.756 69.686H15.8337ZM15.6248 68.0811L15.6979 68.0548C15.5549 67.6576 15.3485 67.3567 15.0747 67.1596L15.0293 67.2226L14.9839 67.2857C15.2257 67.4598 15.4163 67.7312 15.5517 68.1074L15.6248 68.0811ZM15.0293 67.2226L15.0747 67.1596C14.8037 66.9644 14.5003 66.8665 14.1669 66.8665V66.9442V67.0219C14.4677 67.0219 14.7393 67.1095 14.9839 67.2857L15.0293 67.2226ZM17.4463 66.7663V66.6886H17.3686V66.7663H17.4463ZM20.0875 66.7663H20.1652V66.6886H20.0875V66.7663ZM20.0875 67.0563V67.134H20.1652V67.0563H20.0875ZM19.2638 71.3334L19.1904 71.3586L19.1904 71.3587L19.2638 71.3334ZM19.7434 71.9444L19.7008 72.0094L19.7011 72.0096L19.7434 71.9444ZM21.851 71.7704L21.9054 71.8259L21.9057 71.8256L21.851 71.7704ZM22.2106 67.5359L22.1353 67.5551L22.1359 67.557L22.2106 67.5359ZM22.0714 67.2536L22.0132 67.305L22.0143 67.3063L22.0714 67.2536ZM21.8432 67.1066L21.8168 67.1797L21.8187 67.1803L21.8432 67.1066ZM21.3792 67.0563H21.3015V67.134H21.3792V67.0563ZM21.3792 66.7663V66.6886H21.3015V66.7663H21.3792ZM23.5409 66.7663H23.6186V66.6886H23.5409V66.7663ZM23.5409 67.0563V67.134H23.6186V67.0563H23.5409ZM22.8448 67.2536L22.902 67.3062L22.9025 67.3056L22.8448 67.2536ZM22.141 72.0411L22.088 71.9843L22.088 71.9844L22.141 72.0411ZM19.229 72.3544L19.1943 72.4238L19.1947 72.4241L19.229 72.3544ZM18.5213 71.6583L18.4514 71.6921L18.4515 71.6923L18.5213 71.6583ZM18.2622 67.1337L18.2112 67.1924L18.214 67.1946L18.2622 67.1337ZM17.4463 67.0563H17.3686V67.134H17.4463V67.0563ZM17.4463 66.7663V66.844H20.0875V66.7663V66.6886H17.4463V66.7663ZM20.0875 66.7663H20.0099V67.0563H20.0875H20.1652V66.7663H20.0875ZM20.0875 67.0563V66.9786H19.5577V67.0563V67.134H20.0875V67.0563ZM19.5577 67.0563V66.9786C19.4124 66.9786 19.2895 67.0014 19.2108 67.0658L19.26 67.1259L19.3092 67.1861C19.3439 67.1576 19.4195 67.134 19.5577 67.134V67.0563ZM19.26 67.1259L19.2108 67.0658C19.1309 67.1312 19.0972 67.2275 19.0972 67.3386H19.1749H19.2526C19.2526 67.259 19.2756 67.2135 19.3092 67.1861L19.26 67.1259ZM19.1749 67.3386H19.0972V70.5677H19.1749H19.2526V67.3386H19.1749ZM19.1749 70.5677H19.0972C19.0972 70.908 19.1268 71.1736 19.1904 71.3586L19.2638 71.3334L19.3373 71.3082C19.2823 71.1478 19.2526 70.9029 19.2526 70.5677H19.1749ZM19.2638 71.3334L19.1904 71.3587C19.2838 71.6307 19.4548 71.8481 19.7008 72.0094L19.7434 71.9444L19.786 71.8795C19.5679 71.7365 19.4192 71.5466 19.3373 71.3082L19.2638 71.3334ZM19.7434 71.9444L19.7011 72.0096C19.952 72.1723 20.2735 72.2503 20.6599 72.2503V72.1726V72.0949C20.2934 72.0949 20.004 72.0208 19.7856 71.8792L19.7434 71.9444ZM20.6599 72.1726V72.2503C21.1935 72.2503 21.613 72.1128 21.9054 71.8259L21.851 71.7704L21.7966 71.715C21.5424 71.9643 21.1678 72.0949 20.6599 72.0949V72.1726ZM21.851 71.7704L21.9057 71.8256C22.1962 71.5378 22.3386 71.1556 22.3386 70.6876H22.2609H22.1832C22.1832 71.1219 22.0523 71.4616 21.7963 71.7152L21.851 71.7704ZM22.2609 70.6876H22.3386V68.0618H22.2609H22.1832V70.6876H22.2609ZM22.2609 68.0618H22.3386C22.3386 67.8277 22.3219 67.6438 22.2854 67.5147L22.2106 67.5359L22.1359 67.557C22.1664 67.6651 22.1832 67.8318 22.1832 68.0618H22.2609ZM22.2106 67.5359L22.2859 67.5166C22.2529 67.3874 22.2018 67.2802 22.1285 67.2009L22.0714 67.2536L22.0143 67.3063C22.0648 67.3609 22.1065 67.442 22.1353 67.5551L22.2106 67.5359ZM22.0714 67.2536L22.1296 67.2021C22.0604 67.1239 21.9724 67.0677 21.8678 67.0329L21.8432 67.1066L21.8187 67.1803C21.8998 67.2073 21.9638 67.2492 22.0132 67.305L22.0714 67.2536ZM21.8432 67.1066L21.8696 67.0335C21.7631 66.9951 21.5966 66.9786 21.3792 66.9786V67.0563V67.134C21.5949 67.134 21.7378 67.1511 21.8169 67.1797L21.8432 67.1066ZM21.3792 67.0563H21.4569V66.7663H21.3792H21.3015V67.0563H21.3792ZM21.3792 66.7663V66.844H23.5409V66.7663V66.6886H21.3792V66.7663ZM23.5409 66.7663H23.4632V67.0563H23.5409H23.6186V66.7663H23.5409ZM23.5409 67.0563V66.9786H23.3862V67.0563V67.134H23.5409V67.0563ZM23.3862 67.0563V66.9786C23.1303 66.9786 22.9253 67.0483 22.7872 67.2015L22.8448 67.2536L22.9025 67.3056C23.0016 67.1958 23.1575 67.134 23.3862 67.134V67.0563ZM22.8448 67.2536L22.7877 67.201C22.6513 67.3492 22.5893 67.5592 22.5893 67.8182H22.667H22.7446C22.7446 67.5821 22.8012 67.4157 22.902 67.3062L22.8448 67.2536ZM22.667 67.8182H22.5893V70.6296H22.667H22.7446V67.8182H22.667ZM22.667 70.6296H22.5893C22.5893 71.228 22.4188 71.6754 22.088 71.9843L22.141 72.0411L22.194 72.0979C22.5645 71.7519 22.7446 71.2584 22.7446 70.6296H22.667ZM22.141 72.0411L22.088 71.9844C21.7108 72.3368 21.2066 72.5164 20.5671 72.5164V72.5941V72.6718C21.2372 72.6718 21.7823 72.4827 22.1941 72.0979L22.141 72.0411ZM20.5671 72.5941V72.5164C20.0057 72.5164 19.5732 72.4371 19.2633 72.2846L19.229 72.3544L19.1947 72.4241C19.5346 72.5913 19.9941 72.6718 20.5671 72.6718V72.5941ZM19.229 72.3544L19.2638 72.2849C18.9529 72.1294 18.73 71.9092 18.5912 71.6242L18.5213 71.6583L18.4515 71.6923C18.6066 72.0106 18.8555 72.2545 19.1943 72.4238L19.229 72.3544ZM18.5213 71.6583L18.5913 71.6245C18.487 71.4087 18.4327 71.1324 18.4327 70.792H18.3551H18.2774C18.2774 71.1477 18.3339 71.4489 18.4514 71.6921L18.5213 71.6583ZM18.3551 70.792H18.4327V67.3386H18.3551H18.2774V70.792H18.3551ZM18.3551 67.3386H18.4327C18.4327 67.2302 18.3932 67.1382 18.3105 67.0728L18.2622 67.1337L18.214 67.1946C18.2551 67.2271 18.2774 67.2717 18.2774 67.3386H18.3551ZM18.2622 67.1337L18.3132 67.075C18.2339 67.006 18.1217 66.9786 17.9915 66.9786V67.0563V67.134C18.1037 67.134 18.172 67.1582 18.2113 67.1923L18.2622 67.1337ZM17.9915 67.0563V66.9786H17.4463V67.0563V67.134H17.9915V67.0563ZM17.4463 67.0563H17.524V66.7663H17.4463H17.3686V67.0563H17.4463ZM24.0437 66.7663V66.6886H23.9703L23.9661 66.7619L24.0437 66.7663ZM28.6843 66.7663L28.7619 66.7623L28.758 66.6886H28.6843V66.7663ZM28.7964 68.928V69.0057H28.8783L28.874 68.924L28.7964 68.928ZM28.5296 68.928L28.4526 68.9387L28.4619 69.0057H28.5296V68.928ZM26.8435 67.0989L26.7912 67.0414L26.7899 67.0426L26.8435 67.0989ZM27.6865 72.1958H27.7642V72.1181H27.6865V72.1958ZM27.6865 72.4858V72.5635H27.7642V72.4858H27.6865ZM25.0298 72.4858H24.9521V72.5635H25.0298V72.4858ZM25.0298 72.1958V72.1181H24.9521V72.1958H25.0298ZM25.869 67.0989L25.818 67.1575L25.8195 67.1588L25.869 67.0989ZM24.6469 67.5513L24.5835 67.5064L24.5835 67.5064L24.6469 67.5513ZM24.2022 68.928V69.0057H24.2695L24.2791 68.9391L24.2022 68.928ZM23.9199 68.928L23.8424 68.9236L23.8377 69.0057H23.9199V68.928ZM24.0437 66.7663V66.844H28.6843V66.7663V66.6886H24.0437V66.7663ZM28.6843 66.7663L28.6067 66.7703L28.7188 68.9321L28.7964 68.928L28.874 68.924L28.7619 66.7623L28.6843 66.7663ZM28.7964 68.928V68.8503H28.5296V68.928V69.0057H28.7964V68.928ZM28.5296 68.928L28.6066 68.9174C28.5181 68.2764 28.3571 67.7853 28.1169 67.4527C27.8738 67.116 27.5507 66.9438 27.1529 66.9438V67.0215V67.0992C27.4976 67.0992 27.7751 67.2448 27.9909 67.5436C28.2096 67.8465 28.3657 68.3086 28.4526 68.9387L28.5296 68.928ZM27.1529 67.0215V66.9438C26.9999 66.9438 26.8708 66.9691 26.7912 67.0414L26.8435 67.0989L26.8958 67.1564C26.9297 67.1255 27.0067 67.0992 27.1529 67.0992V67.0215ZM26.8435 67.0989L26.7899 67.0426C26.7134 67.1155 26.6846 67.2264 26.6846 67.3541H26.7623H26.84C26.84 67.2446 26.8653 67.1854 26.8971 67.1551L26.8435 67.0989ZM26.7623 67.3541H26.6846V71.9251H26.7623H26.84V67.3541H26.7623ZM26.7623 71.9251H26.6846C26.6846 72.033 26.7166 72.1273 26.7946 72.1904L26.8435 72.1301L26.8924 72.0697C26.8621 72.0451 26.84 72.0028 26.84 71.9251H26.7623ZM26.8435 72.1301L26.7946 72.1904C26.8698 72.2513 26.9811 72.2735 27.1103 72.2735V72.1958V72.1181C26.992 72.1181 26.9255 72.0964 26.8924 72.0697L26.8435 72.1301ZM27.1103 72.1958V72.2735H27.6865V72.1958V72.1181H27.1103V72.1958ZM27.6865 72.1958H27.6089V72.4858H27.6865H27.7642V72.1958H27.6865ZM27.6865 72.4858V72.4081H25.0298V72.4858V72.5635H27.6865V72.4858ZM25.0298 72.4858H25.1075V72.1958H25.0298H24.9521V72.4858H25.0298ZM25.0298 72.1958V72.2735H25.6872V72.1958V72.1181H25.0298V72.1958ZM25.6872 72.1958V72.2735C25.7872 72.2735 25.8762 72.2484 25.9417 72.1865L25.8883 72.1301L25.835 72.0736C25.8076 72.0994 25.7625 72.1181 25.6872 72.1181V72.1958ZM25.8883 72.1301L25.9417 72.1865C26.0057 72.1261 26.0356 72.0465 26.0356 71.956H25.9579H25.8802C25.8802 72.0099 25.8637 72.0464 25.835 72.0736L25.8883 72.1301ZM25.9579 71.956H26.0356V67.3193H25.9579H25.8802V71.956H25.9579ZM25.9579 67.3193H26.0356C26.0356 67.205 26.0003 67.1066 25.9185 67.039L25.869 67.0989L25.8195 67.1588C25.8562 67.1891 25.8802 67.2376 25.8802 67.3193H25.9579ZM25.869 67.0989L25.92 67.0402C25.8397 66.9704 25.7213 66.9438 25.5828 66.9438V67.0215V67.0992C25.7072 67.0992 25.7797 67.1242 25.818 67.1575L25.869 67.0989ZM25.5828 67.0215V66.9438C25.1795 66.9438 24.8455 67.1364 24.5835 67.5064L24.6469 67.5513L24.7104 67.5962C24.9485 67.2599 25.2384 67.0992 25.5828 67.0992V67.0215ZM24.6469 67.5513L24.5835 67.5064C24.3666 67.8128 24.2162 68.2864 24.1253 68.917L24.2022 68.928L24.2791 68.9391C24.3688 68.3168 24.5148 67.8725 24.7104 67.5962L24.6469 67.5513ZM24.2022 68.928V68.8503H23.9199V68.928V69.0057H24.2022V68.928ZM23.9199 68.928L23.9975 68.9325L24.1212 66.7707L24.0437 66.7663L23.9661 66.7619L23.8424 68.9236L23.9199 68.928ZM29.3494 66.7663V66.6886H29.2717V66.7663H29.3494ZM31.7896 66.7663H31.8673V66.6886H31.7896V66.7663ZM31.7896 67.0563V67.134H31.8673V67.0563H31.7896ZM31.0316 67.1414L30.9728 67.0906L30.9727 67.0908L31.0316 67.1414ZM30.962 69.307H30.8843V69.3847H30.962V69.307ZM33.5801 69.307V69.3847H33.6578V69.307H33.5801ZM33.5105 67.1337L33.4513 67.184L33.4528 67.1856L33.5105 67.1337ZM32.7757 67.0563H32.6981V67.134H32.7757V67.0563ZM32.7757 66.7663V66.6886H32.6981V66.7663H32.7757ZM35.2043 66.7663H35.282V66.6886H35.2043V66.7663ZM35.2043 67.0563V67.134H35.282V67.0563H35.2043ZM34.5237 67.0989L34.4832 67.0326L34.4815 67.0336L34.5237 67.0989ZM34.4154 67.2458L34.3434 67.2165L34.3422 67.22L34.4154 67.2458ZM34.4425 72.0643L34.5042 72.0171L34.5028 72.0153L34.4425 72.0643ZM35.2043 72.1958H35.282V72.1181H35.2043V72.1958ZM35.2043 72.4858V72.5635H35.282V72.4858H35.2043ZM32.7757 72.4858H32.6981V72.5635H32.7757V72.4858ZM32.7757 72.1958V72.1181H32.6981V72.1958H32.7757ZM33.5298 72.0605L33.4657 72.0166L33.4649 72.0178L33.5298 72.0605ZM33.5801 69.686H33.6578V69.6083H33.5801V69.686ZM30.962 69.686V69.6083H30.8843V69.686H30.962ZM31.0084 72.0682L30.9463 72.1148L30.9465 72.1151L31.0084 72.0682ZM31.7896 72.1958H31.8673V72.1181H31.7896V72.1958ZM31.7896 72.4858V72.5635H31.8673V72.4858H31.7896ZM29.3494 72.4858H29.2717V72.5635H29.3494V72.4858ZM29.3494 72.1958V72.1181H29.2717V72.1958H29.3494ZM30.1229 72.0024L30.1957 72.0298L30.197 72.0256L30.1229 72.0024ZM30.0687 67.1414L30.0085 67.1907L30.0111 67.1935L30.0687 67.1414ZM29.3494 67.0563H29.2717V67.134H29.3494V67.0563ZM29.3494 66.7663V66.844H31.7896V66.7663V66.6886H29.3494V66.7663ZM31.7896 66.7663H31.7119V67.0563H31.7896H31.8673V66.7663H31.7896ZM31.7896 67.0563V66.9786H31.341V67.0563V67.134H31.7896V67.0563ZM31.341 67.0563V66.9786C31.2584 66.9786 31.1857 66.986 31.1251 67.0027C31.0648 67.0193 31.0108 67.0466 30.9728 67.0906L31.0316 67.1414L31.0904 67.1922C31.1014 67.1795 31.1235 67.1643 31.1663 67.1525C31.2088 67.1408 31.2664 67.134 31.341 67.134V67.0563ZM31.0316 67.1414L30.9727 67.0908C30.9353 67.1344 30.9151 67.199 30.9029 67.2693C30.8902 67.3425 30.8843 67.4344 30.8843 67.5436H30.962H31.0397C31.0397 67.4388 31.0455 67.3567 31.056 67.2958C31.067 67.2321 31.0816 67.2025 31.0906 67.192L31.0316 67.1414ZM30.962 67.5436H30.8843V69.307H30.962H31.0397V67.5436H30.962ZM30.962 69.307V69.3847H33.5801V69.307V69.2293H30.962V69.307ZM33.5801 69.307H33.6578V67.5436H33.5801H33.5024V69.307H33.5801ZM33.5801 67.5436H33.6578C33.6578 67.4306 33.6519 67.3362 33.6393 67.2618C33.6273 67.1909 33.6071 67.1248 33.5683 67.0817L33.5105 67.1337L33.4528 67.1856C33.4603 67.1941 33.475 67.2221 33.4861 67.2878C33.4967 67.3501 33.5024 67.4348 33.5024 67.5436H33.5801ZM33.5105 67.1337L33.5697 67.0834C33.5325 67.0396 33.4766 67.0148 33.4168 67.0002C33.3556 66.9853 33.2804 66.9786 33.1934 66.9786V67.0563V67.134C33.2739 67.134 33.3354 67.1403 33.3799 67.1511C33.4258 67.1623 33.4447 67.1762 33.4513 67.184L33.5105 67.1337ZM33.1934 67.0563V66.9786H32.7757V67.0563V67.134H33.1934V67.0563ZM32.7757 67.0563H32.8534V66.7663H32.7757H32.6981V67.0563H32.7757ZM32.7757 66.7663V66.844H35.2043V66.7663V66.6886H32.7757V66.7663ZM35.2043 66.7663H35.1266V67.0563H35.2043H35.282V66.7663H35.2043ZM35.2043 67.0563V66.9786H34.7596V67.0563V67.134H35.2043V67.0563ZM34.7596 67.0563V66.9786C34.6465 66.9786 34.5491 66.9923 34.4832 67.0326L34.5237 67.0989L34.5642 67.1652C34.5911 67.1487 34.651 67.134 34.7596 67.134V67.0563ZM34.5237 67.0989L34.4815 67.0336C34.4196 67.0737 34.3753 67.1384 34.3435 67.2165L34.4154 67.2458L34.4874 67.2751C34.5123 67.2141 34.5401 67.1808 34.5659 67.1641L34.5237 67.0989ZM34.4154 67.2458L34.3422 67.22C34.3305 67.253 34.3244 67.3024 34.3205 67.3595C34.3165 67.4193 34.3145 67.4964 34.3145 67.59H34.3922H34.4699C34.4699 67.498 34.4718 67.4249 34.4755 67.37C34.4794 67.3123 34.4849 67.2824 34.4887 67.2717L34.4154 67.2458ZM34.3922 67.59H34.3145V71.7047H34.3922H34.4699V67.59H34.3922ZM34.3922 71.7047H34.3145C34.3145 71.8056 34.3188 71.8892 34.3278 71.9542C34.3324 71.9868 34.3384 72.0163 34.3463 72.0418C34.354 72.0664 34.365 72.0922 34.3822 72.1133L34.4425 72.0643L34.5028 72.0153C34.5032 72.0158 34.4995 72.0111 34.4947 71.9955C34.4901 71.9807 34.4856 71.9601 34.4817 71.9327C34.4741 71.8779 34.4699 71.8023 34.4699 71.7047H34.3922ZM34.4425 72.0643L34.3808 72.1115C34.4696 72.2277 34.6226 72.2735 34.8099 72.2735V72.1958V72.1181C34.6413 72.1181 34.5494 72.0762 34.5042 72.0171L34.4425 72.0643ZM34.8099 72.1958V72.2735H35.2043V72.1958V72.1181H34.8099V72.1958ZM35.2043 72.1958H35.1266V72.4858H35.2043H35.282V72.1958H35.2043ZM35.2043 72.4858V72.4081H32.7757V72.4858V72.5635H35.2043V72.4858ZM32.7757 72.4858H32.8534V72.1958H32.7757H32.6981V72.4858H32.7757ZM32.7757 72.1958V72.2735H33.1934V72.1958V72.1181H32.7757V72.1958ZM33.1934 72.1958V72.2735C33.37 72.2735 33.5146 72.2251 33.5948 72.1031L33.5298 72.0605L33.4649 72.0178C33.4265 72.0763 33.3468 72.1181 33.1934 72.1181V72.1958ZM33.5298 72.0605L33.594 72.1043C33.622 72.0633 33.6361 72.0025 33.6446 71.937C33.6536 71.8679 33.6578 71.7798 33.6578 71.6737H33.5801H33.5024C33.5024 71.7765 33.4983 71.8573 33.4905 71.917C33.4823 71.9805 33.4712 72.0086 33.4657 72.0166L33.5298 72.0605ZM33.5801 71.6737H33.6578V69.686H33.5801H33.5024V71.6737H33.5801ZM33.5801 69.686V69.6083H30.962V69.686V69.7637H33.5801V69.686ZM30.962 69.686H30.8843V71.7047H30.962H31.0397V69.686H30.962ZM30.962 71.7047H30.8843C30.8843 71.8067 30.8882 71.891 30.8966 71.9562C30.9007 71.9888 30.9062 72.0183 30.9134 72.0436C30.9204 72.068 30.9304 72.0936 30.9463 72.1148L31.0084 72.0682L31.0706 72.0216C31.071 72.0222 31.0675 72.0172 31.0628 72.0009C31.0585 71.9856 31.0543 71.9645 31.0507 71.9365C31.0436 71.8806 31.0397 71.8037 31.0397 71.7047H30.962ZM31.0084 72.0682L30.9465 72.1151C31.0316 72.2275 31.1714 72.2735 31.341 72.2735V72.1958V72.1181C31.1961 72.1181 31.1142 72.0791 31.0704 72.0213L31.0084 72.0682ZM31.341 72.1958V72.2735H31.7896V72.1958V72.1181H31.341V72.1958ZM31.7896 72.1958H31.7119V72.4858H31.7896H31.8673V72.1958H31.7896ZM31.7896 72.4858V72.4081H29.3494V72.4858V72.5635H31.7896V72.4858ZM29.3494 72.4858H29.4271V72.1958H29.3494H29.2717V72.4858H29.3494ZM29.3494 72.1958V72.2735H29.8174V72.1958V72.1181H29.3494V72.1958ZM29.8174 72.1958V72.2735C29.9096 72.2735 29.9924 72.2548 30.0585 72.2096L30.0146 72.1455L29.9707 72.0814C29.9388 72.1032 29.8901 72.1181 29.8174 72.1181V72.1958ZM30.0146 72.1455L30.0585 72.2096C30.1221 72.1661 30.1675 72.1048 30.1956 72.0297L30.1229 72.0024L30.0501 71.9752C30.0319 72.0239 30.005 72.0579 29.9707 72.0814L30.0146 72.1455ZM30.1229 72.0024L30.197 72.0256C30.2067 71.9948 30.2117 71.9482 30.2149 71.8939C30.2183 71.837 30.2199 71.7634 30.2199 71.6737H30.1422H30.0645C30.0645 71.762 30.0629 71.8321 30.0598 71.8848C30.0566 71.94 30.052 71.9688 30.0487 71.9793L30.1229 72.0024ZM30.1422 71.6737H30.2199V67.5436H30.1422H30.0645V71.6737H30.1422ZM30.1422 67.5436H30.2199C30.2199 67.4342 30.2137 67.3421 30.2003 67.2686C30.1873 67.1978 30.1658 67.1329 30.1263 67.0893L30.0687 67.1414L30.0111 67.1935C30.0206 67.2041 30.0358 67.2333 30.0474 67.2965C30.0585 67.3571 30.0645 67.439 30.0645 67.5436H30.1422ZM30.0687 67.1414L30.1289 67.0922C30.0917 67.0469 30.0375 67.0193 29.9772 67.0027C29.9165 66.986 29.8432 66.9786 29.7593 66.9786V67.0563V67.134C29.8354 67.134 29.8936 67.1408 29.936 67.1525C29.9788 67.1643 29.9993 67.1792 30.0086 67.1906L30.0687 67.1414ZM29.7593 67.0563V66.9786H29.3494V67.0563V67.134H29.7593V67.0563ZM29.3494 67.0563H29.4271V66.7663H29.3494H29.2717V67.0563H29.3494ZM37.9114 66.7663V66.6886H37.8337V66.7663H37.9114ZM39.8179 66.7663L39.8906 66.7388L39.8716 66.6886H39.8179V66.7663ZM41.5233 71.2831L41.4506 71.3106L41.5262 71.5109L41.5967 71.3087L41.5233 71.2831ZM43.0972 66.7663V66.6886H43.042L43.0239 66.7407L43.0972 66.7663ZM45.0463 66.7663H45.124V66.6886H45.0463V66.7663ZM45.0463 67.0563V67.134H45.124V67.0563H45.0463ZM44.2303 67.1298L44.1808 67.0699L44.1795 67.071L44.2303 67.1298ZM45.0463 72.1958H45.124V72.1181H45.0463V72.1958ZM45.0463 72.4858V72.5635H45.124V72.4858H45.0463ZM42.4321 72.4858H42.3544V72.5635H42.4321V72.4858ZM42.4321 72.1958V72.1181H42.3544V72.1958H42.4321ZM43.2287 72.1185L43.2761 72.1801L43.2775 72.1789L43.2287 72.1185ZM43.3293 67.0563H43.407V66.597L43.2559 67.0308L43.3293 67.0563ZM41.4382 72.4858V72.5635H41.4934L41.5116 72.5114L41.4382 72.4858ZM41.1752 72.4858L41.1025 72.5132L41.1215 72.5635H41.1752V72.4858ZM39.1411 67.0795L39.2138 67.0522L39.0634 66.6524V67.0795H39.1411ZM39.2339 71.7936L39.1644 71.8284L39.1647 71.8289L39.2339 71.7936ZM39.4969 72.0759L39.4574 72.1428L39.4592 72.1438L39.4969 72.0759ZM40.0692 72.1958H40.1469V72.1225L40.0738 72.1182L40.0692 72.1958ZM40.0692 72.4858V72.5635H40.1469V72.4858H40.0692ZM37.9114 72.4858H37.8337V72.5635H37.9114V72.4858ZM37.9114 72.1958L37.9063 72.1183L37.8337 72.123V72.1958H37.9114ZM38.7312 67.1259L38.6833 67.1871L38.685 67.1884L38.7312 67.1259ZM37.9114 67.0563H37.8337V67.134H37.9114V67.0563ZM37.9114 66.7663V66.844H39.8179V66.7663V66.6886H37.9114V66.7663ZM39.8179 66.7663L39.7452 66.7937L41.4506 71.3106L41.5233 71.2831L41.596 71.2557L39.8906 66.7388L39.8179 66.7663ZM41.5233 71.2831L41.5967 71.3087L43.1706 66.7919L43.0972 66.7663L43.0239 66.7407L41.4499 71.2576L41.5233 71.2831ZM43.0972 66.7663V66.844H45.0463V66.7663V66.6886H43.0972V66.7663ZM45.0463 66.7663H44.9686V67.0563H45.0463H45.124V66.7663H45.0463ZM45.0463 67.0563V66.9786H44.5706V67.0563V67.134H45.0463V67.0563ZM44.5706 67.0563V66.9786C44.4835 66.9786 44.4074 66.985 44.3435 66.9988C44.2803 67.0124 44.2237 67.0345 44.1808 67.0699L44.2303 67.1298L44.2798 67.1897C44.2962 67.1761 44.326 67.1615 44.3763 67.1506C44.4258 67.1399 44.4901 67.134 44.5706 67.134V67.0563ZM44.2303 67.1298L44.1795 67.071C44.0976 67.1418 44.0675 67.2549 44.0675 67.385H44.1452H44.2229C44.2229 67.2728 44.2496 67.2158 44.2811 67.1886L44.2303 67.1298ZM44.1452 67.385H44.0675V71.9135H44.1452H44.2229V67.385H44.1452ZM44.1452 71.9135H44.0675C44.0675 72.0272 44.1132 72.1213 44.2049 72.1859L44.2497 72.1223L44.2944 72.0588C44.2469 72.0254 44.2229 71.9802 44.2229 71.9135H44.1452ZM44.2497 72.1223L44.2049 72.1859C44.2954 72.2495 44.4364 72.2735 44.6093 72.2735V72.1958V72.1181C44.4419 72.1181 44.3431 72.0931 44.2944 72.0588L44.2497 72.1223ZM44.6093 72.1958V72.2735H45.0463V72.1958V72.1181H44.6093V72.1958ZM45.0463 72.1958H44.9686V72.4858H45.0463H45.124V72.1958H45.0463ZM45.0463 72.4858V72.4081H42.4321V72.4858V72.5635H45.0463V72.4858ZM42.4321 72.4858H42.5098V72.1958H42.4321H42.3544V72.4858H42.4321ZM42.4321 72.1958V72.2735H42.9193V72.1958V72.1181H42.4321V72.1958ZM42.9193 72.1958V72.2735C43.0655 72.2735 43.1892 72.2469 43.2761 72.18L43.2287 72.1185L43.1813 72.0569C43.1342 72.0931 43.0516 72.1181 42.9193 72.1181V72.1958ZM43.2287 72.1185L43.2775 72.1789C43.3619 72.1108 43.407 72.0207 43.407 71.9135H43.3293H43.2516C43.2516 71.9713 43.2296 72.0179 43.1799 72.058L43.2287 72.1185ZM43.3293 71.9135H43.407V67.0563H43.3293H43.2516V71.9135H43.3293ZM43.3293 67.0563L43.2559 67.0308L41.3648 72.4603L41.4382 72.4858L41.5116 72.5114L43.4026 67.0819L43.3293 67.0563ZM41.4382 72.4858V72.4081H41.1752V72.4858V72.5635H41.4382V72.4858ZM41.1752 72.4858L41.248 72.4585L39.2138 67.0522L39.1411 67.0795L39.0684 67.1069L41.1025 72.5132L41.1752 72.4858ZM39.1411 67.0795H39.0634V71.2367H39.1411H39.2188V67.0795H39.1411ZM39.1411 71.2367H39.0634C39.0634 71.4882 39.0944 71.6884 39.1644 71.8284L39.2339 71.7936L39.3034 71.7589C39.2497 71.6514 39.2188 71.4803 39.2188 71.2367H39.1411ZM39.2339 71.7936L39.1647 71.8289C39.2331 71.9628 39.3308 72.068 39.4574 72.1428L39.4969 72.0759L39.5364 72.009C39.4361 71.9497 39.3585 71.8668 39.3031 71.7583L39.2339 71.7936ZM39.4969 72.0759L39.4592 72.1438C39.5913 72.2172 39.7969 72.2578 40.0647 72.2734L40.0692 72.1958L40.0738 72.1182C39.8104 72.1029 39.6345 72.0635 39.5346 72.008L39.4969 72.0759ZM40.0692 72.1958H39.9915V72.4858H40.0692H40.1469V72.1958H40.0692ZM40.0692 72.4858V72.4081H37.9114V72.4858V72.5635H40.0692V72.4858ZM37.9114 72.4858H37.989V72.1958H37.9114H37.8337V72.4858H37.9114ZM37.9114 72.1958L37.9164 72.2733C38.2729 72.2499 38.5384 72.1727 38.6861 72.022L38.6306 71.9676L38.5752 71.9133C38.4702 72.0203 38.2562 72.0953 37.9063 72.1183L37.9114 72.1958ZM38.6306 71.9676L38.6861 72.022C38.8346 71.8706 38.8978 71.6159 38.8978 71.2831H38.8201H38.7424C38.7424 71.6053 38.6794 71.8069 38.5752 71.9133L38.6306 71.9676ZM38.8201 71.2831H38.8978V67.3386H38.8201H38.7424V71.2831H38.8201ZM38.8201 67.3386H38.8978C38.8978 67.2248 38.8626 67.1265 38.7774 67.0635L38.7312 67.1259L38.685 67.1884C38.7183 67.213 38.7424 67.2565 38.7424 67.3386H38.8201ZM38.7312 67.1259L38.7791 67.0648C38.7365 67.0315 38.6812 67.0106 38.6195 66.9977C38.5571 66.9846 38.4831 66.9786 38.3986 66.9786V67.0563V67.134C38.4766 67.134 38.5392 67.1396 38.5877 67.1498C38.6368 67.1601 38.6666 67.174 38.6833 67.1871L38.7312 67.1259ZM38.3986 67.0563V66.9786H37.9114V67.0563V67.134H38.3986V67.0563ZM37.9114 67.0563H37.989V66.7663H37.9114H37.8337V67.0563H37.9114ZM45.5529 66.7663V66.6886H45.4752V66.7663H45.5529ZM48.1903 66.7663H48.268V66.6886H48.1903V66.7663ZM48.1903 67.0563V67.134H48.268V67.0563H48.1903ZM47.355 67.1337L47.4085 67.19L47.4086 67.1899L47.355 67.1337ZM47.3473 72.1069L47.401 72.0508L47.4006 72.0504L47.3473 72.1069ZM48.1903 72.1958H48.268V72.1181H48.1903V72.1958ZM48.1903 72.4858V72.5635H48.268V72.4858H48.1903ZM45.5529 72.4858H45.4752V72.5635H45.5529V72.4858ZM45.5529 72.1958V72.1181H45.4752V72.1958H45.5529ZM46.3998 67.1453L46.4495 67.0856L46.4491 67.0852L46.3998 67.1453ZM45.5529 67.0563H45.4752V67.134H45.5529V67.0563ZM45.5529 66.7663V66.844H48.1903V66.7663V66.6886H45.5529V66.7663ZM48.1903 66.7663H48.1126V67.0563H48.1903H48.268V66.7663H48.1903ZM48.1903 67.0563V66.9786H47.7378V67.0563V67.134H48.1903V67.0563ZM47.7378 67.0563V66.9786C47.6346 66.9786 47.5467 66.9852 47.4759 66.9995C47.4071 67.0134 47.3443 67.0365 47.3014 67.0774L47.355 67.1337L47.4086 67.1899C47.4198 67.1793 47.4479 67.1637 47.5067 67.1518C47.5635 67.1403 47.64 67.134 47.7378 67.134V67.0563ZM47.355 67.1337L47.3015 67.0773C47.2606 67.1162 47.2362 67.1711 47.2215 67.2313C47.2066 67.2923 47.2 67.3661 47.2 67.4508H47.2776H47.3553C47.3553 67.373 47.3616 67.3128 47.3725 67.2681C47.3836 67.2226 47.3978 67.2001 47.4085 67.19L47.355 67.1337ZM47.2776 67.4508H47.2V71.782H47.2776H47.3553V67.4508H47.2776ZM47.2776 71.782H47.2C47.2 71.8712 47.2059 71.9475 47.2191 72.0091C47.2318 72.0686 47.2536 72.1253 47.2939 72.1633L47.3473 72.1069L47.4006 72.0504C47.3945 72.0446 47.3815 72.0253 47.371 71.9765C47.361 71.9298 47.3553 71.8656 47.3553 71.782H47.2776ZM47.3473 72.1069L47.2935 72.1629C47.3782 72.2442 47.5171 72.2735 47.6837 72.2735V72.1958V72.1181C47.5254 72.1181 47.44 72.0881 47.401 72.0508L47.3473 72.1069ZM47.6837 72.1958V72.2735H48.1903V72.1958V72.1181H47.6837V72.1958ZM48.1903 72.1958H48.1126V72.4858H48.1903H48.268V72.1958H48.1903ZM48.1903 72.4858V72.4081H45.5529V72.4858V72.5635H48.1903V72.4858ZM45.5529 72.4858H45.6306V72.1958H45.5529H45.4752V72.4858H45.5529ZM45.5529 72.1958V72.2735H46.0518V72.1958V72.1181H45.5529V72.1958ZM46.0518 72.1958V72.2735C46.1426 72.2735 46.2211 72.2669 46.2855 72.2522C46.3488 72.2378 46.4064 72.214 46.447 72.1734L46.3921 72.1185L46.3371 72.0635C46.3262 72.0745 46.3013 72.0893 46.2511 72.1007C46.2021 72.1118 46.1362 72.1181 46.0518 72.1181V72.1958ZM46.3921 72.1185L46.447 72.1734C46.4874 72.133 46.5114 72.0759 46.5258 72.0131C46.5405 71.9492 46.5471 71.8716 46.5471 71.782H46.4694H46.3917C46.3917 71.8651 46.3855 71.93 46.3744 71.9783C46.363 72.0276 46.3482 72.0524 46.3371 72.0635L46.3921 72.1185ZM46.4694 71.782H46.5471V67.4508H46.4694H46.3917V71.782H46.4694ZM46.4694 67.4508H46.5471C46.5471 67.3654 46.5412 67.2923 46.5278 67.2334C46.5148 67.1767 46.4924 67.1213 46.4495 67.0856L46.3998 67.1453L46.3501 67.205C46.3536 67.2079 46.366 67.2227 46.3763 67.2679C46.386 67.3109 46.3917 67.3712 46.3917 67.4508H46.4694ZM46.3998 67.1453L46.4491 67.0852C46.3543 67.0074 46.1968 66.9786 46.0015 66.9786V67.0563V67.134C46.1928 67.134 46.3009 67.1646 46.3505 67.2053L46.3998 67.1453ZM46.0015 67.0563V66.9786H45.5529V67.0563V67.134H46.0015V67.0563ZM45.5529 67.0563H45.6306V66.7663H45.5529H45.4752V67.0563H45.5529ZM48.809 66.7663V66.6886H48.7314V66.7663H48.809ZM50.1742 66.7663L50.2358 66.719L50.2125 66.6886H50.1742V66.7663ZM53.6237 71.2599L53.562 71.3073L53.7014 71.4887V71.2599H53.6237ZM53.3994 67.2806L53.343 67.334L53.3431 67.3342L53.3994 67.2806ZM52.7884 67.0563H52.7107V67.1326L52.7869 67.134L52.7884 67.0563ZM52.7884 66.7663V66.6886H52.7107V66.7663H52.7884ZM54.7877 66.7663H54.8654V66.6886H54.7877V66.7663ZM54.7877 67.0563V67.134H54.8654V67.0563H54.7877ZM53.9563 72.4858V72.5635H54.0339V72.4858H53.9563ZM53.5927 72.4858L53.531 72.533L53.5543 72.5635H53.5927V72.4858ZM50.0233 67.8104L50.0851 67.7633L49.9456 67.5806V67.8104H50.0233ZM50.2592 71.9599L50.2048 72.0153L50.2052 72.0157L50.2592 71.9599ZM50.9901 72.1958H51.0678V72.1193L50.9913 72.1181L50.9901 72.1958ZM50.9901 72.4858V72.5635H51.0678V72.4858H50.9901ZM48.809 72.4858H48.7314V72.5635H48.809V72.4858ZM48.809 72.1958L48.8061 72.1182L48.7314 72.121V72.1958H48.809ZM49.4587 71.929L49.515 71.9826L49.5154 71.9822L49.4587 71.929ZM49.6985 67.4276H49.7762V67.3967L49.755 67.3742L49.6985 67.4276ZM49.6328 67.358L49.5757 67.4108L49.5763 67.4113L49.6328 67.358ZM49.3582 67.1105L49.3244 67.1804L49.3248 67.1806L49.3582 67.1105ZM48.809 67.0563H48.7314V67.134H48.809V67.0563ZM48.809 66.7663V66.844H50.1742V66.7663V66.6886H48.809V66.7663ZM50.1742 66.7663L50.1125 66.8136L53.562 71.3073L53.6237 71.2599L53.6853 71.2126L50.2358 66.719L50.1742 66.7663ZM53.6237 71.2599H53.7014V68.0077H53.6237H53.546V71.2599H53.6237ZM53.6237 68.0077H53.7014C53.7014 67.6702 53.6245 67.4047 53.4557 67.2271L53.3994 67.2806L53.3431 67.3342C53.4733 67.4711 53.546 67.6902 53.546 68.0077H53.6237ZM53.3994 67.2806L53.4558 67.2272C53.3003 67.0629 53.0736 66.9841 52.7898 66.9787L52.7884 67.0563L52.7869 67.134C53.0445 67.1389 53.2252 67.2096 53.343 67.334L53.3994 67.2806ZM52.7884 67.0563H52.8661V66.7663H52.7884H52.7107V67.0563H52.7884ZM52.7884 66.7663V66.844H54.7877V66.7663V66.6886H52.7884V66.7663ZM54.7877 66.7663H54.71V67.0563H54.7877H54.8654V66.7663H54.7877ZM54.7877 67.0563V66.9786C54.5795 66.9786 54.4112 67.0072 54.2932 67.0737L54.3314 67.1414L54.3695 67.2091C54.4526 67.1622 54.5886 67.134 54.7877 67.134V67.0563ZM54.3314 67.1414L54.2932 67.0737C54.1744 67.1408 54.0776 67.2586 53.9989 67.416L54.0684 67.4508L54.1379 67.4855C54.2087 67.3439 54.2873 67.2555 54.3695 67.2091L54.3314 67.1414ZM54.0684 67.4508L53.9989 67.416C53.9184 67.577 53.8786 67.7528 53.8786 67.9419H53.9563H54.0339C54.0339 67.7753 54.0689 67.6236 54.1379 67.4855L54.0684 67.4508ZM53.9563 67.9419H53.8786V72.4858H53.9563H54.0339V67.9419H53.9563ZM53.9563 72.4858V72.4081H53.5927V72.4858V72.5635H53.9563V72.4858ZM53.5927 72.4858L53.6545 72.4387L50.0851 67.7633L50.0233 67.8104L49.9616 67.8576L53.531 72.533L53.5927 72.4858ZM50.0233 67.8104H49.9456V71.2599H50.0233H50.101V67.8104H50.0233ZM50.0233 71.2599H49.9456C49.9456 71.584 50.0274 71.8408 50.2048 72.0153L50.2592 71.9599L50.3137 71.9045C50.1766 71.7696 50.101 71.5598 50.101 71.2599H50.0233ZM50.2592 71.9599L50.2052 72.0157C50.3824 72.1871 50.649 72.2682 50.9889 72.2735L50.9901 72.1958L50.9913 72.1181C50.6713 72.1131 50.4506 72.0369 50.3132 71.9041L50.2592 71.9599ZM50.9901 72.1958H50.9124V72.4858H50.9901H51.0678V72.1958H50.9901ZM50.9901 72.4858V72.4081H48.809V72.4858V72.5635H50.9901V72.4858ZM48.809 72.4858H48.8867V72.1958H48.809H48.7314V72.4858H48.809ZM48.809 72.1958L48.812 72.2734C49.1016 72.2625 49.3387 72.1674 49.5149 71.9826L49.4587 71.929L49.4025 71.8753C49.2591 72.0257 49.0631 72.1085 48.8061 72.1182L48.809 72.1958ZM49.4587 71.929L49.5154 71.9822C49.6894 71.7968 49.7762 71.57 49.7762 71.3064H49.6985H49.6208C49.6208 71.5326 49.5477 71.7208 49.4021 71.8758L49.4587 71.929ZM49.6985 71.3064H49.7762V67.4276H49.6985H49.6208V71.3064H49.6985ZM49.6985 67.4276L49.755 67.3742L49.6892 67.3046L49.6328 67.358L49.5763 67.4113L49.642 67.4809L49.6985 67.4276ZM49.6328 67.358L49.6898 67.3052C49.6245 67.2347 49.5676 67.1774 49.5195 67.134C49.4727 67.0918 49.4294 67.0583 49.3916 67.0403L49.3582 67.1105L49.3248 67.1806C49.3412 67.1884 49.3706 67.209 49.4154 67.2494C49.4588 67.2885 49.5121 67.3421 49.5757 67.4108L49.6328 67.358ZM49.3582 67.1105L49.392 67.0405C49.3031 66.9976 49.1938 66.9786 49.0681 66.9786V67.0563V67.134C49.1797 67.134 49.2637 67.1511 49.3244 67.1804L49.3582 67.1105ZM49.0681 67.0563V66.9786H48.809V67.0563V67.134H49.0681V67.0563ZM48.809 67.0563H48.8867V66.7663H48.809H48.7314V67.0563H48.809ZM55.2363 66.7663V66.6886H55.1586V66.7663H55.2363ZM57.8737 66.7663H57.9514V66.6886H57.8737V66.7663ZM57.8737 67.0563V67.134H57.9514V67.0563H57.8737ZM57.0384 67.1337L57.0919 67.19L57.092 67.1899L57.0384 67.1337ZM57.0307 72.1069L57.0844 72.0508L57.084 72.0504L57.0307 72.1069ZM57.8737 72.1958H57.9514V72.1181H57.8737V72.1958ZM57.8737 72.4858V72.5635H57.9514V72.4858H57.8737ZM55.2363 72.4858H55.1586V72.5635H55.2363V72.4858ZM55.2363 72.1958V72.1181H55.1586V72.1958H55.2363ZM56.0832 67.1453L56.1329 67.0856L56.1325 67.0852L56.0832 67.1453ZM55.2363 67.0563H55.1586V67.134H55.2363V67.0563ZM55.2363 66.7663V66.844H57.8737V66.7663V66.6886H55.2363V66.7663ZM57.8737 66.7663H57.796V67.0563H57.8737H57.9514V66.7663H57.8737ZM57.8737 67.0563V66.9786H57.4212V67.0563V67.134H57.8737V67.0563ZM57.4212 67.0563V66.9786C57.318 66.9786 57.2301 66.9852 57.1593 66.9995C57.0905 67.0134 57.0277 67.0365 56.9848 67.0774L57.0384 67.1337L57.092 67.1899C57.1032 67.1793 57.1313 67.1637 57.1901 67.1518C57.2469 67.1403 57.3234 67.134 57.4212 67.134V67.0563ZM57.0384 67.1337L56.9849 67.0773C56.944 67.1162 56.9196 67.1711 56.9049 67.2313C56.89 67.2923 56.8834 67.3661 56.8834 67.4508H56.961H57.0387C57.0387 67.373 57.045 67.3128 57.0559 67.2681C57.067 67.2226 57.0812 67.2001 57.0919 67.19L57.0384 67.1337ZM56.961 67.4508H56.8834V71.782H56.961H57.0387V67.4508H56.961ZM56.961 71.782H56.8834C56.8834 71.8712 56.8893 71.9475 56.9025 72.0091C56.9152 72.0686 56.937 72.1253 56.9773 72.1633L57.0307 72.1069L57.084 72.0504C57.0779 72.0446 57.0649 72.0253 57.0544 71.9765C57.0444 71.9298 57.0387 71.8656 57.0387 71.782H56.961ZM57.0307 72.1069L56.9769 72.1629C57.0616 72.2442 57.2005 72.2735 57.3671 72.2735V72.1958V72.1181C57.2088 72.1181 57.1234 72.0881 57.0844 72.0508L57.0307 72.1069ZM57.3671 72.1958V72.2735H57.8737V72.1958V72.1181H57.3671V72.1958ZM57.8737 72.1958H57.796V72.4858H57.8737H57.9514V72.1958H57.8737ZM57.8737 72.4858V72.4081H55.2363V72.4858V72.5635H57.8737V72.4858ZM55.2363 72.4858H55.314V72.1958H55.2363H55.1586V72.4858H55.2363ZM55.2363 72.1958V72.2735H55.7352V72.1958V72.1181H55.2363V72.1958ZM55.7352 72.1958V72.2735C55.826 72.2735 55.9045 72.2669 55.9689 72.2522C56.0322 72.2378 56.0898 72.214 56.1304 72.1734L56.0755 72.1185L56.0205 72.0635C56.0096 72.0745 55.9847 72.0893 55.9345 72.1007C55.8855 72.1118 55.8196 72.1181 55.7352 72.1181V72.1958ZM56.0755 72.1185L56.1304 72.1734C56.1708 72.133 56.1948 72.0759 56.2092 72.0131C56.2239 71.9492 56.2305 71.8716 56.2305 71.782H56.1528H56.0751C56.0751 71.8651 56.0689 71.93 56.0578 71.9783C56.0464 72.0276 56.0316 72.0524 56.0205 72.0635L56.0755 72.1185ZM56.1528 71.782H56.2305V67.4508H56.1528H56.0751V71.782H56.1528ZM56.1528 67.4508H56.2305C56.2305 67.3654 56.2246 67.2923 56.2112 67.2334C56.1982 67.1767 56.1758 67.1213 56.1329 67.0856L56.0832 67.1453L56.0335 67.205C56.037 67.2079 56.0494 67.2227 56.0597 67.2679C56.0694 67.3109 56.0751 67.3712 56.0751 67.4508H56.1528ZM56.0832 67.1453L56.1325 67.0852C56.0377 67.0074 55.8802 66.9786 55.6849 66.9786V67.0563V67.134C55.8762 67.134 55.9843 67.1646 56.0339 67.2053L56.0832 67.1453ZM55.6849 67.0563V66.9786H55.2363V67.0563V67.134H55.6849V67.0563ZM55.2363 67.0563H55.314V66.7663H55.2363H55.1586V67.0563H55.2363ZM61.8298 67.1994L61.7793 67.2584L61.8445 67.3142L61.8935 67.2439L61.8298 67.1994ZM62.1779 66.7005V66.6229H62.1373L62.1141 66.6561L62.1779 66.7005ZM62.4602 66.7005L62.5379 66.6997L62.537 66.6229H62.4602V66.7005ZM62.4834 68.785V68.8626H62.5619L62.5611 68.7841L62.4834 68.785ZM62.2281 68.785L62.1528 68.8038L62.1675 68.8626H62.2281V68.785ZM61.5166 67.385L61.4633 67.4416L61.4635 67.4418L61.5166 67.385ZM59.4012 68.4794L59.3344 68.5191L59.3347 68.5196L59.4012 68.4794ZM59.7686 68.8159L59.7317 68.8843L59.733 68.8849L59.7686 68.8159ZM60.6967 69.0905L60.7133 69.0146L60.7131 69.0145L60.6967 69.0905ZM62.0348 69.512L61.997 69.5799L61.9973 69.5801L62.0348 69.512ZM62.611 70.0495L62.5439 70.0887L62.5441 70.089L62.611 70.0495ZM62.2784 72.0875L62.3327 72.1431L62.3327 72.1431L62.2784 72.0875ZM59.3974 72.0218L59.4486 71.9633L59.3881 71.9104L59.3373 71.9726L59.3974 72.0218ZM58.9604 72.5554V72.6331H58.9972L59.0205 72.6047L58.9604 72.5554ZM58.6819 72.5554H58.6042V72.6331H58.6819V72.5554ZM58.6819 70.3396V70.2619H58.6042V70.3396H58.6819ZM58.9604 70.3396L59.0369 70.326L59.0255 70.2619H58.9604V70.3396ZM61.8917 71.9792L61.9448 72.036L61.9448 72.036L61.8917 71.9792ZM62.1199 70.676L62.0547 70.7183L62.055 70.7188L62.1199 70.676ZM61.6906 70.328L61.6566 70.3978L61.6573 70.3982L61.6906 70.328ZM60.5343 69.9838L60.5164 70.0594L60.5167 70.0594L60.5343 69.9838ZM59.2427 69.481L59.1936 69.5412L59.1938 69.5414L59.2427 69.481ZM61.8298 67.1994L61.8935 67.2439L62.2416 66.745L62.1779 66.7005L62.1141 66.6561L61.7661 67.155L61.8298 67.1994ZM62.1779 66.7005V66.7782H62.4602V66.7005V66.6229H62.1779V66.7005ZM62.4602 66.7005L62.3825 66.7014L62.4057 68.7858L62.4834 68.785L62.5611 68.7841L62.5379 66.6997L62.4602 66.7005ZM62.4834 68.785V68.7073H62.2281V68.785V68.8626H62.4834V68.785ZM62.2281 68.785L62.3035 68.7661C62.1418 68.1194 61.8995 67.6365 61.5696 67.3283L61.5166 67.385L61.4635 67.4418C61.7628 67.7214 61.9948 68.1718 62.1528 68.8038L62.2281 68.785ZM61.5166 67.385L61.5699 67.3285C61.2443 67.0218 60.8659 66.8665 60.4376 66.8665V66.9442V67.0219C60.8241 67.0219 61.1649 67.1605 61.4633 67.4416L61.5166 67.385ZM60.4376 66.9442V66.8665C60.0806 66.8665 59.7822 66.9739 59.5491 67.1931L59.6023 67.2497L59.6556 67.3063C59.8556 67.1181 60.114 67.0219 60.4376 67.0219V66.9442ZM59.6023 67.2497L59.5491 67.1931C59.3171 67.4113 59.1998 67.6804 59.1998 67.9961H59.2775H59.3552C59.3552 67.7239 59.4544 67.4955 59.6556 67.3063L59.6023 67.2497ZM59.2775 67.9961H59.1998C59.1998 68.1912 59.2439 68.3663 59.3344 68.5191L59.4012 68.4794L59.4681 68.4398C59.3936 68.3141 59.3552 68.167 59.3552 67.9961H59.2775ZM59.4012 68.4794L59.3347 68.5196C59.4255 68.6699 59.559 68.7911 59.7317 68.8843L59.7686 68.8159L59.8055 68.7475C59.6534 68.6654 59.542 68.5623 59.4677 68.4393L59.4012 68.4794ZM59.7686 68.8159L59.733 68.8849C59.9082 68.9753 60.2269 69.0685 60.6803 69.1664L60.6967 69.0905L60.7131 69.0145C60.259 68.9165 59.959 68.8267 59.8042 68.7468L59.7686 68.8159ZM60.6967 69.0905L60.6801 69.1664C61.3164 69.3055 61.7526 69.4441 61.997 69.5799L62.0348 69.512L62.0725 69.4441C61.8065 69.2963 61.3507 69.1539 60.7133 69.0146L60.6967 69.0905ZM62.0348 69.512L61.9973 69.5801C62.245 69.7163 62.4258 69.8862 62.5439 70.0887L62.611 70.0495L62.6781 70.0104C62.5435 69.7797 62.3402 69.5913 62.0722 69.4439L62.0348 69.512ZM62.611 70.0495L62.5441 70.089C62.6623 70.2892 62.7228 70.5265 62.7228 70.8036H62.8005H62.8782C62.8782 70.5033 62.8124 70.2378 62.6779 70.01L62.611 70.0495ZM62.8005 70.8036H62.7228C62.7228 71.2997 62.5562 71.7072 62.2241 72.032L62.2784 72.0875L62.3327 72.1431C62.6967 71.7872 62.8782 71.3388 62.8782 70.8036H62.8005ZM62.2784 72.0875L62.2241 72.032C61.8952 72.3535 61.4683 72.5164 60.9365 72.5164V72.5941V72.6718C61.5029 72.6718 61.9707 72.497 62.3327 72.1431L62.2784 72.0875ZM60.9365 72.5941V72.5164C60.3645 72.5164 59.8698 72.3322 59.4486 71.9633L59.3974 72.0218L59.3462 72.0802C59.7963 72.4745 60.3277 72.6718 60.9365 72.6718V72.5941ZM59.3974 72.0218L59.3373 71.9726L58.9003 72.5062L58.9604 72.5554L59.0205 72.6047L59.4575 72.071L59.3974 72.0218ZM58.9604 72.5554V72.4778H58.6819V72.5554V72.6331H58.9604V72.5554ZM58.6819 72.5554H58.7596V70.3396H58.6819H58.6042V72.5554H58.6819ZM58.6819 70.3396V70.4173H58.9604V70.3396V70.2619H58.6819V70.3396ZM58.9604 70.3396L58.8839 70.3531C58.9945 70.9772 59.2433 71.4757 59.6342 71.8425L59.6874 71.7859L59.7406 71.7292C59.3787 71.3897 59.1428 70.9239 59.0369 70.326L58.9604 70.3396ZM59.6874 71.7859L59.6342 71.8425C60.0236 72.2079 60.4662 72.3934 60.9597 72.3934V72.3157V72.238C60.5096 72.238 60.104 72.0703 59.7406 71.7292L59.6874 71.7859ZM60.9597 72.3157V72.3934C61.3576 72.3934 61.6883 72.2759 61.9448 72.036L61.8917 71.9792L61.8386 71.9225C61.6156 72.1312 61.325 72.238 60.9597 72.238V72.3157ZM61.8917 71.9792L61.9448 72.036C62.2023 71.7949 62.3329 71.5 62.3329 71.1555H62.2552H62.1775C62.1775 71.4556 62.0658 71.7098 61.8386 71.9225L61.8917 71.9792ZM62.2552 71.1555H62.3329C62.3329 70.9591 62.2843 70.784 62.1847 70.6332L62.1199 70.676L62.055 70.7188C62.1359 70.8413 62.1775 70.9859 62.1775 71.1555H62.2552ZM62.1199 70.676L62.1851 70.6337C62.0849 70.4792 61.9289 70.3549 61.7239 70.2577L61.6906 70.328L61.6573 70.3982C61.8442 70.4867 61.9743 70.5943 62.0547 70.7183L62.1199 70.676ZM61.6906 70.328L61.7246 70.2581C61.5197 70.1584 61.1261 70.042 60.552 69.9081L60.5343 69.9838L60.5167 70.0594C61.0924 70.1937 61.4696 70.3068 61.6566 70.3978L61.6906 70.328ZM60.5343 69.9838L60.5522 69.9082C59.9215 69.7589 59.5062 69.5943 59.2915 69.4206L59.2427 69.481L59.1938 69.5414C59.438 69.739 59.8839 69.9096 60.5164 70.0594L60.5343 69.9838ZM59.2427 69.481L59.2918 69.4209C58.9906 69.1751 58.837 68.8264 58.837 68.3634H58.7593H58.6816C58.6816 68.8647 58.8502 69.2611 59.1936 69.5412L59.2427 69.481ZM58.7593 68.3634H58.837C58.837 67.8788 58.9903 67.4882 59.2938 67.1847L59.2388 67.1298L59.1839 67.0749C58.8479 67.4108 58.6816 67.8426 58.6816 68.3634H58.7593ZM59.2388 67.1298L59.2938 67.1847C59.6 66.8785 59.9907 66.7241 60.4724 66.7241V66.6464V66.5687C59.9539 66.5687 59.5222 66.7365 59.1839 67.0749L59.2388 67.1298ZM60.4724 66.6464V66.7241C60.7028 66.7241 60.9213 66.7649 61.1285 66.8463L61.1569 66.774L61.1853 66.7017C60.9595 66.613 60.7216 66.5687 60.4724 66.5687V66.6464ZM61.1569 66.774L61.1285 66.8463C61.335 66.9274 61.5519 67.0639 61.7793 67.2584L61.8298 67.1994L61.8803 67.1404C61.6437 66.9379 61.412 66.7908 61.1853 66.7017L61.1569 66.774ZM63.5043 66.7663V66.6886H63.4309L63.4267 66.7619L63.5043 66.7663ZM68.1449 66.7663L68.2225 66.7623L68.2187 66.6886H68.1449V66.7663ZM68.2571 68.928V69.0057H68.3389L68.3346 68.924L68.2571 68.928ZM67.9902 68.928L67.9133 68.9387L67.9225 69.0057H67.9902V68.928ZM66.3041 67.0989L66.2519 67.0414L66.2506 67.0426L66.3041 67.0989ZM67.1472 72.1958H67.2249V72.1181H67.1472V72.1958ZM67.1472 72.4858V72.5635H67.2249V72.4858H67.1472ZM64.4904 72.4858H64.4127V72.5635H64.4904V72.4858ZM64.4904 72.1958V72.1181H64.4127V72.1958H64.4904ZM65.3296 67.0989L65.2786 67.1575L65.2801 67.1588L65.3296 67.0989ZM64.1076 67.5513L64.0442 67.5064L64.0442 67.5064L64.1076 67.5513ZM63.6629 68.928V69.0057H63.7302L63.7398 68.9391L63.6629 68.928ZM63.3806 68.928L63.303 68.9236L63.2983 69.0057H63.3806V68.928ZM63.5043 66.7663V66.844H68.1449V66.7663V66.6886H63.5043V66.7663ZM68.1449 66.7663L68.0673 66.7703L68.1795 68.9321L68.2571 68.928L68.3346 68.924L68.2225 66.7623L68.1449 66.7663ZM68.2571 68.928V68.8503H67.9902V68.928V69.0057H68.2571V68.928ZM67.9902 68.928L68.0672 68.9174C67.9788 68.2764 67.8177 67.7853 67.5775 67.4527C67.3344 67.116 67.0113 66.9438 66.6135 66.9438V67.0215V67.0992C66.9582 67.0992 67.2358 67.2448 67.4516 67.5436C67.6703 67.8465 67.8264 68.3086 67.9133 68.9387L67.9902 68.928ZM66.6135 67.0215V66.9438C66.4606 66.9438 66.3314 66.9691 66.2519 67.0414L66.3041 67.0989L66.3564 67.1564C66.3903 67.1255 66.4674 67.0992 66.6135 67.0992V67.0215ZM66.3041 67.0989L66.2506 67.0426C66.174 67.1155 66.1452 67.2264 66.1452 67.3541H66.2229H66.3006C66.3006 67.2446 66.326 67.1854 66.3577 67.1551L66.3041 67.0989ZM66.2229 67.3541H66.1452V71.9251H66.2229H66.3006V67.3541H66.2229ZM66.2229 71.9251H66.1452C66.1452 72.033 66.1773 72.1273 66.2553 72.1904L66.3041 72.1301L66.353 72.0697C66.3227 72.0451 66.3006 72.0028 66.3006 71.9251H66.2229ZM66.3041 72.1301L66.2553 72.1904C66.3305 72.2513 66.4418 72.2735 66.571 72.2735V72.1958V72.1181C66.4527 72.1181 66.3861 72.0964 66.353 72.0697L66.3041 72.1301ZM66.571 72.1958V72.2735H67.1472V72.1958V72.1181H66.571V72.1958ZM67.1472 72.1958H67.0695V72.4858H67.1472H67.2249V72.1958H67.1472ZM67.1472 72.4858V72.4081H64.4904V72.4858V72.5635H67.1472V72.4858ZM64.4904 72.4858H64.5681V72.1958H64.4904H64.4127V72.4858H64.4904ZM64.4904 72.1958V72.2735H65.1479V72.1958V72.1181H64.4904V72.1958ZM65.1479 72.1958V72.2735C65.2478 72.2735 65.3368 72.2484 65.4023 72.1865L65.3489 72.1301L65.2956 72.0736C65.2683 72.0994 65.2232 72.1181 65.1479 72.1181V72.1958ZM65.3489 72.1301L65.4023 72.1865C65.4663 72.1261 65.4962 72.0465 65.4962 71.956H65.4186H65.3409C65.3409 72.0099 65.3244 72.0464 65.2956 72.0736L65.3489 72.1301ZM65.4186 71.956H65.4962V67.3193H65.4186H65.3409V71.956H65.4186ZM65.4186 67.3193H65.4962C65.4962 67.205 65.461 67.1066 65.3791 67.039L65.3296 67.0989L65.2801 67.1588C65.3169 67.1891 65.3409 67.2376 65.3409 67.3193H65.4186ZM65.3296 67.0989L65.3806 67.0402C65.3003 66.9704 65.182 66.9438 65.0434 66.9438V67.0215V67.0992C65.1679 67.0992 65.2403 67.1242 65.2786 67.1575L65.3296 67.0989ZM65.0434 67.0215V66.9438C64.6402 66.9438 64.3062 67.1364 64.0442 67.5064L64.1076 67.5513L64.171 67.5962C64.4091 67.2599 64.6991 67.0992 65.0434 67.0992V67.0215ZM64.1076 67.5513L64.0442 67.5064C63.8273 67.8128 63.6768 68.2864 63.586 68.917L63.6629 68.928L63.7398 68.9391C63.8294 68.3168 63.9754 67.8725 64.171 67.5962L64.1076 67.5513ZM63.6629 68.928V68.8503H63.3806V68.928V69.0057H63.6629V68.928ZM63.3806 68.928L63.4581 68.9325L63.5819 66.7707L63.5043 66.7663L63.4267 66.7619L63.303 68.9236L63.3806 68.928ZM68.6485 66.5228V66.4451H68.5708V66.5228H68.6485ZM73.1157 66.93L73.0662 66.9899L73.0664 66.9901L73.1157 66.93ZM73.4141 68.704L73.3485 68.6623L73.3484 68.6625L73.4141 68.704ZM72.8496 69.1959L72.8841 69.2655L72.8844 69.2654L72.8496 69.1959ZM71.6925 69.458L71.6846 69.3807L71.2692 69.423L71.672 69.5329L71.6925 69.458ZM72.4868 69.7684L72.442 69.8319L72.4428 69.8325L72.4868 69.7684ZM72.8335 70.1595L72.7649 70.1961L72.7657 70.1974L72.8335 70.1595ZM73.1359 71.1352L73.2116 71.1178L73.2116 71.1178L73.1359 71.1352ZM73.3939 71.8569L73.4575 71.8122L73.4573 71.812L73.3939 71.8569ZM73.8495 71.8246L73.7825 71.7853L73.7822 71.7858L73.8495 71.8246ZM73.9826 71.1755V71.0978H73.9088L73.905 71.1715L73.9826 71.1755ZM74.2567 71.1755L74.3343 71.1798L74.3389 71.0978H74.2567V71.1755ZM72.7327 72.3971L72.6882 72.4608L72.6888 72.4612L72.7327 72.3971ZM72.4101 71.9577L72.4829 71.9304L72.4826 71.9295L72.4101 71.9577ZM72.2207 70.8167L72.1434 70.8254L72.1435 70.8254L72.2207 70.8167ZM72.0271 70.0547L71.9597 70.0932L71.9602 70.0941L72.0271 70.0547ZM70.4668 69.5547V69.477H70.3891V69.5547H70.4668ZM70.5434 72.1068L70.5916 72.0459L70.5916 72.0459L70.5434 72.1068ZM71.4183 72.1835H71.496V72.1058H71.4183V72.1835ZM71.4183 72.4858V72.5635H71.496V72.4858H71.4183ZM68.6485 72.4858H68.5708V72.5635H68.6485V72.4858ZM68.6485 72.1835V72.1058H68.5708V72.1835H68.6485ZM69.5153 72.1068L69.4658 72.0469L69.4645 72.0481L69.5153 72.1068ZM68.6485 66.8252H68.5708V66.9029H68.6485V66.8252ZM70.4668 69.2644H70.3891V69.3421H70.4668V69.2644ZM72.2811 68.9983L72.3242 69.063L72.3244 69.0629L72.2811 68.9983ZM72.5311 67.2969L72.4629 67.334L72.4633 67.3348L72.5311 67.2969ZM70.5797 66.8897L70.6183 66.9572L70.62 66.9561L70.5797 66.8897ZM68.6485 66.5228V66.6005H71.7288V66.5228V66.4451H68.6485V66.5228ZM71.7288 66.5228V66.6005C72.3146 66.6005 72.7569 66.7338 73.0662 66.9899L73.1157 66.93L73.1653 66.8702C72.8187 66.5833 72.3364 66.4451 71.7288 66.4451V66.5228ZM73.1157 66.93L73.0664 66.9901C73.3784 67.2463 73.5339 67.5801 73.5339 67.9984H73.6116H73.6893C73.6893 67.5352 73.5142 67.1567 73.165 66.87L73.1157 66.93ZM73.6116 67.9984H73.5339C73.5339 68.2482 73.4717 68.4687 73.3485 68.6623L73.4141 68.704L73.4796 68.7457C73.6198 68.5254 73.6893 68.2755 73.6893 67.9984H73.6116ZM73.4141 68.704L73.3484 68.6625C73.228 68.8532 73.0513 69.0082 72.8149 69.1264L72.8496 69.1959L72.8844 69.2654C73.1425 69.1363 73.3421 68.9634 73.4798 68.7455L73.4141 68.704ZM72.8496 69.1959L72.8152 69.1262C72.5835 69.2408 72.2092 69.3271 71.6846 69.3807L71.6925 69.458L71.7004 69.5352C72.2294 69.4813 72.6266 69.3929 72.8841 69.2655L72.8496 69.1959ZM71.6925 69.458L71.672 69.5329C72.0558 69.6376 72.3089 69.7383 72.442 69.8319L72.4868 69.7684L72.5315 69.7049C72.3743 69.5943 72.0979 69.488 71.7129 69.383L71.6925 69.458ZM72.4868 69.7684L72.4428 69.8325C72.5773 69.9246 72.6846 70.0454 72.7649 70.196L72.8335 70.1595L72.902 70.1229C72.8104 69.9511 72.6865 69.8111 72.5307 69.7043L72.4868 69.7684ZM72.8335 70.1595L72.7657 70.1974C72.8482 70.3449 72.947 70.6594 73.0601 71.1526L73.1359 71.1352L73.2116 71.1178C73.099 70.6272 72.9962 70.2913 72.9013 70.1216L72.8335 70.1595ZM73.1359 71.1352L73.0601 71.1525C73.1409 71.505 73.2295 71.7591 73.3305 71.9018L73.3939 71.8569L73.4573 71.812C73.3756 71.6966 73.2921 71.4696 73.2116 71.1178L73.1359 71.1352ZM73.3939 71.8569L73.3303 71.9015C73.407 72.0107 73.5028 72.0837 73.6197 72.0837V72.0061V71.9284C73.5753 71.9284 73.5205 71.902 73.4575 71.8122L73.3939 71.8569ZM73.6197 72.0061V72.0837C73.7459 72.0837 73.8427 71.9916 73.9168 71.8635L73.8495 71.8246L73.7822 71.7858C73.7165 71.8995 73.6602 71.9284 73.6197 71.9284V72.0061ZM73.8495 71.8246L73.9165 71.864C73.9993 71.7229 74.0439 71.4899 74.0601 71.1796L73.9826 71.1755L73.905 71.1715C73.8889 71.4794 73.8448 71.6791 73.7825 71.7853L73.8495 71.8246ZM73.9826 71.1755V71.2532H74.2567V71.1755V71.0978H73.9826V71.1755ZM74.2567 71.1755L74.1791 71.1712C74.154 71.6214 74.0586 71.9465 73.9029 72.1575C73.7505 72.364 73.5347 72.4686 73.2447 72.4686V72.5463V72.624C73.5784 72.624 73.843 72.5002 74.0279 72.2498C74.2095 72.0038 74.3084 71.6435 74.3343 71.1798L74.2567 71.1755ZM73.2447 72.5463V72.4686C73.0623 72.4686 72.9074 72.4226 72.7766 72.333L72.7327 72.3971L72.6888 72.4612C72.8483 72.5705 73.0347 72.624 73.2447 72.624V72.5463ZM72.7327 72.3971L72.7772 72.3334C72.6499 72.2446 72.551 72.112 72.4829 71.9304L72.4101 71.9577L72.3374 71.985C72.4144 72.1904 72.5306 72.3508 72.6882 72.4608L72.7327 72.3971ZM72.4101 71.9577L72.4826 71.9295C72.4576 71.8653 72.4287 71.7412 72.3971 71.5508C72.3658 71.3625 72.3327 71.115 72.2978 70.8079L72.2207 70.8167L72.1435 70.8254C72.1785 71.1338 72.2119 71.3843 72.2438 71.5763C72.2753 71.7663 72.3063 71.9049 72.3377 71.9858L72.4101 71.9577ZM72.2207 70.8167L72.2979 70.808C72.2573 70.4487 72.1916 70.1807 72.0941 70.0152L72.0271 70.0547L71.9602 70.0941C72.0401 70.2297 72.1033 70.4697 72.1434 70.8254L72.2207 70.8167ZM72.0271 70.0547L72.0946 70.0161C71.9995 69.8497 71.8509 69.719 71.6543 69.6221L71.6199 69.6918L71.5856 69.7615C71.7599 69.8474 71.8827 69.9586 71.9597 70.0932L72.0271 70.0547ZM71.6199 69.6918L71.6543 69.6221C71.4558 69.5243 71.2217 69.477 70.9547 69.477V69.5547V69.6324C71.2037 69.6324 71.4131 69.6765 71.5856 69.7615L71.6199 69.6918ZM70.9547 69.5547V69.477H70.4668V69.5547V69.6324H70.9547V69.5547ZM70.4668 69.5547H70.3891V71.8972H70.4668H70.5445V69.5547H70.4668ZM70.4668 71.8972H70.3891C70.3891 72.0076 70.4174 72.1063 70.4953 72.1678L70.5434 72.1068L70.5916 72.0459C70.5673 72.0267 70.5445 71.9857 70.5445 71.8972H70.4668ZM70.5434 72.1068L70.4952 72.1678C70.5799 72.2349 70.7019 72.2611 70.8458 72.2611V72.1835V72.1058C70.7155 72.1058 70.6359 72.081 70.5916 72.0459L70.5434 72.1068ZM70.8458 72.1835V72.2611H71.4183V72.1835V72.1058H70.8458V72.1835ZM71.4183 72.1835H71.3406V72.4858H71.4183H71.496V72.1835H71.4183ZM71.4183 72.4858V72.4081H68.6485V72.4858V72.5635H71.4183V72.4858ZM68.6485 72.4858H68.7262V72.1835H68.6485H68.5708V72.4858H68.6485ZM68.6485 72.1835V72.2611H69.2331V72.1835V72.1058H68.6485V72.1835ZM69.2331 72.1835V72.2611C69.3695 72.2611 69.4862 72.2347 69.5661 72.1656L69.5153 72.1068L69.4645 72.0481C69.4262 72.0812 69.3547 72.1058 69.2331 72.1058V72.1835ZM69.5153 72.1068L69.5648 72.1667C69.6465 72.0992 69.6857 72.0063 69.6857 71.8972H69.608H69.5303C69.5303 71.9655 69.5077 72.0123 69.4658 72.047L69.5153 72.1068ZM69.608 71.8972H69.6857V67.1316H69.608H69.5303V71.8972H69.608ZM69.608 67.1316H69.6857C69.6857 67.0132 69.6492 66.9116 69.5648 66.8419L69.5153 66.9018L69.4658 66.9617C69.5051 66.9941 69.5303 67.0458 69.5303 67.1316H69.608ZM69.5153 66.9018L69.5648 66.8419C69.483 66.7743 69.3677 66.7475 69.2331 66.7475V66.8252V66.9029C69.3512 66.9029 69.424 66.9271 69.4658 66.9617L69.5153 66.9018ZM69.2331 66.8252V66.7475H68.6485V66.8252V66.9029H69.2331V66.8252ZM68.6485 66.8252H68.7262V66.5228H68.6485H68.5708V66.8252H68.6485ZM70.4668 69.2644V69.3421H71.1724V69.2644V69.1867H70.4668V69.2644ZM71.1724 69.2644V69.3421C71.6539 69.3421 72.0406 69.252 72.3242 69.063L72.2811 68.9983L72.238 68.9337C71.9894 69.0994 71.637 69.1867 71.1724 69.1867V69.2644ZM72.2811 68.9983L72.3244 69.0629C72.6228 68.8629 72.762 68.5141 72.762 68.0428H72.6843H72.6066C72.6066 68.4854 72.477 68.7735 72.2379 68.9338L72.2811 68.9983ZM72.6843 68.0428H72.762C72.762 67.7212 72.71 67.4577 72.5989 67.259L72.5311 67.2969L72.4633 67.3348C72.5565 67.5016 72.6066 67.7354 72.6066 68.0428H72.6843ZM72.5311 67.2969L72.5993 67.2598C72.4929 67.0642 72.3487 66.9252 72.1654 66.8501L72.136 66.9219L72.1065 66.9938C72.2512 67.0531 72.3704 67.1641 72.4629 67.334L72.5311 67.2969ZM72.136 66.9219L72.1654 66.8501C72.0731 66.8122 71.9428 66.7861 71.7792 66.7691C71.6143 66.7519 71.4105 66.7435 71.1683 66.7435V66.8212V66.8988C71.4074 66.8988 71.6054 66.9072 71.7631 66.9236C71.922 66.9402 72.0349 66.9645 72.1065 66.9938L72.136 66.9219ZM71.1683 66.8212V66.7435C71.0083 66.7435 70.8766 66.7492 70.7743 66.7611C70.6756 66.7726 70.5927 66.7909 70.5394 66.8233L70.5797 66.8897L70.62 66.9561C70.642 66.9428 70.6948 66.9268 70.7923 66.9155C70.8862 66.9045 71.0112 66.8988 71.1683 66.8988V66.8212ZM70.5797 66.8897L70.5412 66.8222C70.4356 66.8826 70.3891 66.9879 70.3891 67.1155H70.4668H70.5445C70.5445 67.028 70.5733 66.9828 70.6183 66.9571L70.5797 66.8897ZM70.4668 67.1155H70.3891V69.2644H70.4668H70.5445V67.1155H70.4668ZM74.0511 66.5228V66.4451H73.9734V66.5228H74.0511ZM76.6637 66.5228H76.7414V66.4451H76.6637V66.5228ZM76.6637 66.8252V66.9029H76.7414V66.8252H76.6637ZM75.8493 67.2284L75.9146 67.1862L75.9139 67.1853L75.8493 67.2284ZM77.3652 69.5789L77.2999 69.621L77.371 69.7311L77.4335 69.616L77.3652 69.5789ZM78.4538 67.5751L78.3856 67.5379L78.3856 67.538L78.4538 67.5751ZM77.72 66.8252H77.6423V66.9029H77.72V66.8252ZM77.72 66.5228V66.4451H77.6423V66.5228H77.72ZM79.994 66.5228H80.0717V66.4451H79.994V66.5228ZM79.994 66.8252V66.9029H80.0717V66.8252H79.994ZM78.9417 67.4783L78.8737 67.4407L78.8735 67.4411L78.9417 67.4783ZM77.5668 69.9982L77.4986 69.961L77.4891 69.9784V69.9982H77.5668ZM77.6515 72.0988L77.6044 72.1606L77.6059 72.1617L77.6515 72.0988ZM78.5103 72.1835H78.588V72.1058H78.5103V72.1835ZM78.5103 72.4858V72.5635H78.588V72.4858H78.5103ZM75.7727 72.4858H75.695V72.5635H75.7727V72.4858ZM75.7727 72.1835V72.1058H75.695V72.1835H75.7727ZM76.6274 72.1068L76.6757 72.1678L76.6772 72.1665L76.6274 72.1068ZM76.7242 70.0506H76.8019V70.0278L76.7896 70.0087L76.7242 70.0506ZM74.8736 67.1679L74.939 67.1259L74.9387 67.1254L74.8736 67.1679ZM74.5914 66.9099L74.558 66.98L74.5595 66.9807L74.5914 66.9099ZM74.0511 66.8252H73.9734V66.9012L74.0494 66.9029L74.0511 66.8252ZM74.0511 66.5228V66.6005H76.6637V66.5228V66.4451H74.0511V66.5228ZM76.6637 66.5228H76.586V66.8252H76.6637H76.7414V66.5228H76.6637ZM76.6637 66.8252V66.7475H76.3734V66.8252V66.9029H76.6637V66.8252ZM76.3734 66.8252V66.7475C76.2508 66.7475 76.1477 66.7522 76.0648 66.7622C75.9839 66.7718 75.915 66.7872 75.8659 66.8127L75.9017 66.8816L75.9375 66.9506C75.9609 66.9384 76.0069 66.9256 76.0833 66.9164C76.1577 66.9075 76.2541 66.9029 76.3734 66.9029V66.8252ZM75.9017 66.8816L75.8659 66.8127C75.7743 66.8602 75.7151 66.9358 75.7151 67.0389H75.7928H75.8705C75.8705 67.0075 75.8839 66.9783 75.9375 66.9506L75.9017 66.8816ZM75.7928 67.0389H75.7151C75.7151 67.1236 75.7382 67.2018 75.7846 67.2715L75.8493 67.2284L75.9139 67.1853C75.8851 67.142 75.8705 67.0939 75.8705 67.0389H75.7928ZM75.8493 67.2284L75.784 67.2705L77.2999 69.621L77.3652 69.5789L77.4305 69.5368L75.9146 67.1863L75.8493 67.2284ZM77.3652 69.5789L77.4335 69.616L78.5221 67.6122L78.4538 67.5751L78.3856 67.538L77.297 69.5418L77.3652 69.5789ZM78.4538 67.5751L78.522 67.6123C78.5769 67.5118 78.6041 67.4021 78.6041 67.2848H78.5264H78.4487C78.4487 67.3771 78.4275 67.461 78.3856 67.5379L78.4538 67.5751ZM78.5264 67.2848H78.6041C78.6041 67.1263 78.5514 66.9928 78.4417 66.8928L78.3893 66.9502L78.337 67.0076C78.41 67.0742 78.4487 67.1637 78.4487 67.2848H78.5264ZM78.3893 66.9502L78.4417 66.8928C78.3314 66.7922 78.1797 66.7475 77.9982 66.7475V66.8252V66.9029C78.1554 66.9029 78.2645 66.9415 78.337 67.0076L78.3893 66.9502ZM77.9982 66.8252V66.7475H77.72V66.8252V66.9029H77.9982V66.8252ZM77.72 66.8252H77.7977V66.5228H77.72H77.6423V66.8252H77.72ZM77.72 66.5228V66.6005H79.994V66.5228V66.4451H77.72V66.5228ZM79.994 66.5228H79.9163V66.8252H79.994H80.0717V66.5228H79.994ZM79.994 66.8252V66.7475C79.7254 66.7475 79.504 66.7944 79.3368 66.8959L79.3771 66.9623L79.4174 67.0287C79.5513 66.9474 79.7411 66.9029 79.994 66.9029V66.8252ZM79.3771 66.9623L79.3368 66.8959C79.1695 66.9974 79.0163 67.183 78.8737 67.4407L78.9417 67.4783L79.0097 67.5159C79.1466 67.2684 79.2837 67.1099 79.4174 67.0287L79.3771 66.9623ZM78.9417 67.4783L78.8735 67.4411L77.4986 69.961L77.5668 69.9982L77.635 70.0354L79.0099 67.5155L78.9417 67.4783ZM77.5668 69.9982H77.4891V71.8851H77.5668H77.6445V69.9982H77.5668ZM77.5668 71.8851H77.4891C77.4891 71.9985 77.5217 72.0976 77.6044 72.1606L77.6515 72.0988L77.6986 72.037C77.6684 72.014 77.6445 71.9706 77.6445 71.8851H77.5668ZM77.6515 72.0988L77.6059 72.1617C77.7029 72.2319 77.8376 72.2611 77.9982 72.2611V72.1835V72.1058C77.8524 72.1058 77.756 72.0785 77.6971 72.0359L77.6515 72.0988ZM77.9982 72.1835V72.2611H78.5103V72.1835V72.1058H77.9982V72.1835ZM78.5103 72.1835H78.4326V72.4858H78.5103H78.588V72.1835H78.5103ZM78.5103 72.4858V72.4081H75.7727V72.4858V72.5635H78.5103V72.4858ZM75.7727 72.4858H75.8504V72.1835H75.7727H75.695V72.4858H75.7727ZM75.7727 72.1835V72.2611H76.3129V72.1835V72.1058H75.7727V72.1835ZM76.3129 72.1835V72.2611C76.4636 72.2611 76.5903 72.2353 76.6756 72.1678L76.6274 72.1068L76.5792 72.0459C76.5355 72.0805 76.4525 72.1058 76.3129 72.1058V72.1835ZM76.6274 72.1068L76.6772 72.1665C76.7616 72.0961 76.8019 71.9991 76.8019 71.8851H76.7242H76.6465C76.6465 71.9592 76.6222 72.0101 76.5777 72.0472L76.6274 72.1068ZM76.7242 71.8851H76.8019V70.0506H76.7242H76.6465V71.8851H76.7242ZM76.7242 70.0506L76.7896 70.0087L74.939 67.1259L74.8736 67.1679L74.8082 67.2099L76.6588 70.0926L76.7242 70.0506ZM74.8736 67.1679L74.9387 67.1254C74.8519 66.9925 74.7473 66.8949 74.6232 66.839L74.5914 66.9099L74.5595 66.9807C74.6504 67.0216 74.7339 67.096 74.8085 67.2103L74.8736 67.1679ZM74.5914 66.9099L74.6247 66.8397C74.5012 66.781 74.3068 66.7529 74.0527 66.7475L74.0511 66.8252L74.0494 66.9029C74.3007 66.9082 74.4664 66.9365 74.558 66.98L74.5914 66.9099ZM74.0511 66.8252H74.1288V66.5228H74.0511H73.9734V66.8252H74.0511Z" fill="white"/>
<path d="M34.1561 7.34351H47.2506V14.2253C47.2506 17.8395 44.3168 20.7717 40.7042 20.7717C37.0899 20.7717 34.1577 17.8379 34.1577 14.2253V7.34351H34.1561Z" stroke="white" stroke-width="0.15714" stroke-miterlimit="10"/>
<path d="M40.2522 9.61644C39.9509 10.7828 39.6495 11.9492 39.3482 13.114H38.7407V13.8819H39.1619C39.1619 14.2626 39.1506 14.6449 39.0518 15.0256C38.8817 15.3221 38.569 15.4954 38.2466 15.4695C37.8125 15.4355 37.5921 15.0613 37.5727 15.0256V13.8819H37.2762C37.1839 14.0633 37.0575 14.3614 37.0138 14.7518C36.9814 15.0451 36.9279 15.5294 37.2114 15.9798C37.2568 16.0527 37.4998 16.4366 37.934 16.5598C38.5658 16.738 39.2705 16.3394 39.5442 15.7579C39.6609 15.5116 39.7613 15.3059 39.7905 15.1439C39.831 14.9138 40.0043 14.2286 40.0043 13.8463C40.4806 13.8463 40.6296 13.8463 41.1059 13.8463C41.391 14.7648 41.6761 15.6833 41.9613 16.6019H42.5688V15.8421H43.1941V16.6019H44.0478V15.8599H44.6229V17.0539C44.6197 17.0749 44.5824 17.2564 44.4091 17.3438C44.2406 17.4297 44.0835 17.3536 44.064 17.3438C42.3274 17.3568 40.5908 17.3714 38.8541 17.3843H38.5091C38.4605 17.3033 38.4102 17.2207 38.3616 17.1397C38.198 17.1332 38.0328 17.1284 37.8692 17.1219C37.9469 17.3244 38.0522 17.5577 38.198 17.8039C38.2466 17.8865 38.4345 18.1992 38.7569 18.554C38.9027 18.716 39.0356 18.8407 39.1344 18.9298H43.638C43.8842 18.7937 44.1305 18.656 44.3783 18.52C44.5857 18.3434 44.8287 18.1085 45.0684 17.8039C45.3001 17.5091 45.4702 17.224 45.5949 16.9842V13.8949H46.2203V13.0751H43.3917C43.3415 12.8354 43.2913 12.4385 43.3772 11.9654C43.4079 11.7986 43.5149 11.2105 43.9037 10.7715C44.6813 9.89184 46.0647 10.2077 46.1393 10.2256C46.1344 10.0781 46.1279 9.9291 46.123 9.78168C45.9238 9.7104 45.6289 9.6294 45.2677 9.61158C44.9955 9.59862 44.1677 9.5565 43.4436 10.1235C42.5477 10.8233 42.4602 11.9395 42.4489 12.1193V13.0751H41.7328C41.4202 11.9185 41.1092 10.7618 40.7965 9.6051C40.6151 9.60672 40.4352 9.60996 40.2538 9.61158L40.2522 9.61644Z" stroke="white" stroke-width="0.1458" stroke-miterlimit="10"/>
<path d="M41.9289 13.8478H42.2075V14.2706H41.9289V13.8478Z" stroke="white" stroke-width="0.1458" stroke-miterlimit="10"/>
<path d="M43.442 13.8478H44.5922V15.0595H43.7708C43.7303 15.045 43.625 15.0028 43.5408 14.8894C43.4582 14.776 43.4452 14.661 43.442 14.6157V13.8478Z" stroke="white" stroke-width="0.1458" stroke-miterlimit="10"/>
<path d="M40.513 11.4584C40.4093 11.993 40.304 12.5276 40.2003 13.0622H41.0411C40.8645 12.5276 40.6879 11.993 40.513 11.4584Z" stroke="white" stroke-width="0.1458" stroke-miterlimit="10"/>
<path d="M34.8527 7.93811C35.4715 8.30909 36.0904 8.68169 36.7092 9.05267C37.3216 8.68169 37.9356 8.30909 38.5479 7.93811V11.4584L36.6995 12.8969L34.8511 11.4584V7.93811H34.8527Z" stroke="white" stroke-width="0.162" stroke-miterlimit="10"/>
</g>
<defs>
<clipPath id="clip0_19_104">
<rect width="81.8473" height="75.3559" fill="white"/>
</clipPath>
</defs>
</svg>
